<?xml version="1.0" standalone="no"?>
<!DOCTYPE svg PUBLIC "-//W3C//DTD SVG 20010904//EN"
 "http://www.w3.org/TR/2001/REC-SVG-20010904/DTD/svg10.dtd">
<svg version="1.0" xmlns="http://www.w3.org/2000/svg"
 width="580.000000pt" height="579.000000pt" viewBox="0 0 580.000000 579.000000"
 preserveAspectRatio="xMidYMid meet">
<metadata>
Created by potrace 1.16, written by Peter Selinger 2001-2019
</metadata>
<g transform="translate(0.000000,579.000000) scale(0.100000,-0.100000)"
fill="#000000" stroke="none">
<path d="M3647 5753 c-34 -54 -119 -219 -106 -206 12 12 138 243 133 243 -2 0
-14 -17 -27 -37z"/>
<path d="M3716 5755 c12 -68 52 -207 63 -218 9 -9 261 149 277 174 8 14 17 19
-146 -89 -87 -58 -126 -79 -131 -70 -3 7 -18 63 -34 123 -28 112 -43 153 -29
80z"/>
<path d="M3332 5674 c-1 -13 3 -24 8 -24 5 0 7 7 4 15 -10 24 5 18 59 -28 70
-58 87 -70 87 -64 0 5 -124 107 -145 119 -6 4 -12 -4 -13 -18z"/>
<path d="M4062 5680 c0 -14 2 -19 5 -12 2 6 2 18 0 25 -3 6 -5 1 -5 -13z"/>
<path d="M4052 5630 c0 -14 2 -19 5 -12 2 6 2 18 0 25 -3 6 -5 1 -5 -13z"/>
<path d="M4210 5640 c0 -7 -3 -11 -6 -7 -8 8 -60 -18 -70 -35 -4 -6 9 -2 29
11 34 21 37 21 38 4 0 -14 2 -13 10 6 5 13 7 26 4 29 -3 3 -5 -1 -5 -8z"/>
<path d="M3342 5580 c0 -14 2 -19 5 -12 2 6 2 18 0 25 -3 6 -5 1 -5 -13z"/>
<path d="M4040 5586 c0 -8 -3 -21 -6 -30 -3 -9 -1 -16 4 -16 16 0 84 42 78 47
-3 3 -18 -4 -34 -16 -38 -27 -40 -26 -34 4 2 14 2 25 -2 25 -3 0 -6 -6 -6 -14z"/>
<path d="M4185 5579 c-4 -6 -5 -12 -2 -15 2 -3 7 2 10 11 7 17 1 20 -8 4z"/>
<path d="M3595 5504 c1 -44 6 -79 13 -86 16 -16 15 -77 -2 -107 -7 -13 -11
-32 -9 -41 4 -13 -12 -21 -79 -39 -102 -27 -222 -91 -247 -133 -11 -16 -24
-50 -31 -74 -7 -24 -18 -44 -24 -44 -7 0 -28 -8 -48 -18 l-36 -19 50 68 c27
38 55 72 61 76 7 5 -17 10 -52 13 l-65 5 40 20 c21 11 54 31 72 44 l33 24 -62
40 c-45 30 -57 42 -47 49 11 8 11 9 0 6 -26 -7 -16 -23 35 -58 29 -19 52 -38
53 -41 0 -3 -37 -27 -82 -53 -46 -26 -74 -46 -63 -45 11 1 44 1 73 0 l52 -1
-48 -62 c-27 -35 -55 -73 -61 -86 l-12 -23 52 26 c33 17 55 23 61 17 6 -6 6
-12 -1 -16 -6 -4 -11 -17 -11 -29 1 -18 3 -17 14 9 20 45 36 52 36 16 0 -17 6
-32 15 -36 12 -4 13 -2 2 15 -11 18 -8 24 23 50 19 16 75 49 125 74 162 79
258 101 316 71 41 -21 71 -25 119 -16 38 7 52 4 100 -20 75 -38 155 -102 184
-148 20 -31 21 -40 11 -57 -7 -11 -21 -42 -31 -69 -14 -37 -19 -44 -24 -30 -6
17 -7 17 -11 -2 -3 -10 -3 -29 0 -42 5 -18 13 -6 40 62 43 106 61 114 136 56
27 -21 51 -37 53 -35 2 1 -1 18 -7 36 -7 26 -9 29 -10 11 -1 -23 -1 -23 -45 7
-42 29 -44 32 -51 98 -9 91 -26 128 -80 175 -40 35 -44 42 -33 61 15 28 38
116 38 146 0 19 -3 21 -14 12 -29 -25 -178 -71 -226 -71 -42 0 -50 3 -50 18 0
11 -9 27 -21 38 -12 10 -28 36 -36 56 -10 26 -29 45 -61 64 -26 15 -65 46 -87
69 l-40 42 0 -73z"/>
<path d="M4152 5505 c-30 -62 -27 -71 4 -12 14 27 24 51 22 53 -3 2 -14 -17
-26 -41z"/>
<path d="M3351 5514 c0 -11 3 -14 6 -6 3 7 2 16 -1 19 -3 4 -6 -2 -5 -13z"/>
<path d="M4353 5505 c0 -6 -25 -50 -56 -97 -31 -47 -57 -90 -57 -94 0 -10 11
5 83 117 30 47 49 86 43 86 -7 0 -13 -5 -13 -12z"/>
<path d="M3180 5504 c0 -6 25 -46 56 -89 30 -42 53 -79 51 -81 -2 -3 -28 -13
-58 -24 -30 -11 -46 -19 -36 -20 10 0 40 9 67 21 l49 21 -55 73 c-30 41 -54
76 -54 80 0 3 27 -8 60 -25 33 -17 60 -28 60 -25 0 8 -120 66 -120 58 0 -5 -5
-1 -10 7 -5 8 -10 10 -10 4z"/>
<path d="M4235 5488 c-38 -11 -74 -24 -80 -29 -5 -5 15 -2 45 7 30 9 75 23
100 30 25 6 36 12 25 12 -11 0 -51 -9 -90 -20z"/>
<path d="M3361 5443 c-1 -7 -9 -10 -18 -7 -16 5 -16 4 0 -6 21 -13 32 -8 24
12 -4 9 -6 9 -6 1z"/>
<path d="M4333 5341 c-34 -9 -65 -19 -68 -23 -4 -3 26 2 66 12 40 11 75 18 76
16 2 -2 -12 -23 -30 -47 -19 -24 -46 -64 -62 -88 -26 -42 -27 -45 -9 -58 10
-7 27 -13 38 -12 14 1 10 4 -12 10 -38 11 -38 13 44 129 59 85 58 87 -43 61z"/>
<path d="M4404 5125 c22 -8 41 -17 43 -18 2 -2 -29 -16 -67 -31 -39 -16 -69
-30 -67 -33 7 -6 157 57 157 67 0 4 -12 10 -27 14 -16 3 -39 8 -53 11 -14 3
-7 -1 14 -10z"/>
<path d="M4290 5032 c0 -9 59 -36 65 -30 3 2 -11 12 -30 21 -19 9 -35 13 -35
9z"/>
<path d="M4355 4990 c-18 -8 -17 -9 8 -9 16 -1 26 3 22 9 -3 6 -7 10 -8 9 -1
0 -11 -4 -22 -9z"/>
<path d="M4308 4973 c7 -3 16 -2 19 1 4 3 -2 6 -13 5 -11 0 -14 -3 -6 -6z"/>
<path d="M4277 4930 c9 -22 18 -38 20 -36 5 5 -24 76 -31 76 -2 0 3 -18 11
-40z"/>
<path d="M3293 4930 c22 -86 57 -165 57 -127 0 28 -2 32 -11 30 -5 -2 -9 5
-10 15 0 9 -9 35 -20 57 -11 22 -18 33 -16 25z"/>
<path d="M3215 4860 c12 -38 44 -110 49 -110 5 0 -43 122 -51 130 -3 3 -2 -6
2 -20z"/>
<path d="M3260 4857 c0 -8 6 -35 14 -60 16 -53 7 -66 -30 -46 -22 11 -30 10
-57 -4 -18 -10 -43 -27 -57 -38 -23 -20 -23 -20 10 0 59 37 78 44 97 37 11 -5
14 -9 6 -14 -6 -4 12 -8 40 -9 45 -1 49 0 30 10 -12 7 -22 15 -22 20 0 17 -23
117 -27 117 -2 0 -4 -6 -4 -13z"/>
<path d="M4213 4815 c0 -22 2 -30 4 -17 2 12 2 30 0 40 -3 9 -5 -1 -4 -23z"/>
<path d="M4173 4805 c0 -22 2 -30 4 -17 2 12 2 30 0 40 -3 9 -5 -1 -4 -23z"/>
<path d="M3366 4800 c4 -8 16 -28 27 -43 23 -34 11 -55 -21 -38 -29 15 -36 14
-18 -4 8 -8 31 -15 50 -15 20 0 52 0 72 0 20 0 49 -7 64 -17 24 -14 33 -15 56
-4 23 10 30 9 50 -10 17 -16 29 -19 54 -14 20 4 36 2 47 -6 8 -7 30 -12 49
-10 21 1 34 -2 34 -9 0 -9 10 -10 31 -6 18 3 37 1 44 -4 9 -7 21 -7 41 0 22 9
31 8 42 -4 14 -13 17 -13 28 2 10 14 16 15 32 6 10 -7 30 -10 44 -7 14 3 29 0
32 -6 4 -5 14 -7 23 -4 9 4 21 -1 29 -12 8 -10 14 -14 14 -9 0 16 -23 34 -44
34 -18 0 -18 2 6 28 33 34 68 92 68 112 0 8 -9 -3 -19 -23 -31 -62 -70 -106
-90 -104 -16 1 -17 5 -10 25 14 37 10 39 -10 5 -14 -23 -25 -30 -39 -26 -19 5
-19 6 4 46 13 23 24 47 24 52 0 6 -13 -13 -29 -40 -38 -67 -54 -80 -72 -59 -7
9 -12 31 -12 50 1 28 -2 32 -15 25 -10 -5 -28 -21 -42 -36 -37 -39 -56 -48
-79 -33 -19 12 -19 12 2 42 l22 31 6 -35 c6 -32 6 -31 8 14 l1 49 -35 -39
c-19 -21 -34 -42 -35 -46 0 -12 -48 -10 -55 2 -3 6 -15 10 -26 10 -23 0 -23
-1 -5 41 l14 34 17 -41 c15 -39 45 -56 45 -26 0 8 -6 12 -14 9 -10 -4 -18 5
-26 29 -14 41 -27 43 -41 7 l-11 -28 -26 53 c-14 28 -30 52 -34 52 -4 0 -7 -3
-6 -7 2 -5 -12 -29 -30 -55 -31 -46 -52 -60 -52 -37 0 5 -5 7 -12 3 -6 -4 -8
-3 -5 4 4 5 4 18 0 29 -6 16 -8 15 -13 -7 -6 -25 -6 -25 -24 9 l-18 35 -13
-24 -13 -24 -17 39 c-13 29 -19 35 -22 23 -3 -10 5 -30 16 -45 12 -14 19 -29
16 -32 -4 -3 -10 1 -15 9 -28 45 -77 107 -64 80z m322 -139 c-5 -2 -20 7 -33
19 -17 16 -31 21 -49 16 l-26 -6 33 46 32 46 27 -59 c14 -32 22 -60 16 -62z
m-199 71 c8 -14 6 -19 -5 -19 -7 0 -14 9 -14 19 0 10 2 18 5 18 2 0 9 -8 14
-18z m468 -66 c1 -27 -3 -35 -20 -40 -11 -3 -27 0 -35 6 -11 10 -8 17 20 40
18 15 33 28 33 28 0 0 1 -15 2 -34z"/>
<path d="M4132 4688 c-12 -23 -20 -43 -18 -46 3 -2 14 15 26 38 12 23 20 43
18 45 -2 2 -13 -15 -26 -37z"/>
<path d="M3181 4677 c-13 -21 -12 -21 5 -5 10 10 16 20 13 22 -3 3 -11 -5 -18
-17z"/>
<path d="M3083 4642 c-14 -25 -19 -49 -16 -73 4 -26 -3 -51 -22 -90 -29 -58
-40 -69 -67 -69 -9 0 -29 -5 -45 -11 l-28 -11 23 -12 23 -12 -25 -12 c-14 -6
-26 -7 -28 -2 -2 6 -9 6 -18 0 -27 -17 -1 -23 42 -11 47 14 81 39 72 52 -3 5
2 9 10 9 32 0 15 -30 -31 -55 -27 -14 -37 -23 -23 -19 14 3 36 13 48 21 13 8
26 12 29 9 10 -9 -102 -57 -142 -60 -19 -2 -39 -7 -43 -11 -15 -16 85 4 133
26 70 32 73 33 45 10 -14 -11 -20 -21 -14 -21 6 0 17 7 24 15 7 8 18 15 24 15
6 0 0 -9 -14 -20 -14 -11 -20 -19 -15 -19 6 0 25 13 43 28 l33 29 -31 -4 c-20
-2 -29 0 -24 7 3 6 13 8 21 5 9 -4 23 -1 31 6 13 11 14 11 7 -1 -6 -11 -4 -13
10 -7 18 7 18 6 1 -13 -10 -11 -43 -37 -72 -57 -57 -40 -65 -47 -36 -37 18 7
17 5 -12 -17 -13 -10 -17 -10 -12 -2 12 20 -12 14 -35 -9 -11 -11 -27 -19 -36
-17 -33 6 -22 27 32 57 52 29 76 52 38 36 -72 -30 -166 -34 -148 -5 3 4 -2 10
-10 14 -8 3 -15 11 -15 17 0 7 8 5 20 -6 11 -10 20 -14 20 -9 0 6 17 8 38 6
20 -3 35 -2 32 1 -3 3 -21 6 -40 8 -48 4 -54 8 -35 29 10 11 26 16 48 14 23
-3 28 -1 17 6 -8 5 -41 10 -73 10 -49 0 -61 4 -80 25 l-22 25 -43 -20 c-32
-15 -49 -17 -62 -10 -15 8 -24 5 -40 -12 -11 -12 -20 -25 -20 -30 0 -4 -9 -8
-19 -8 -12 0 -23 11 -30 31 -10 30 -13 31 -48 24 -47 -8 -177 -59 -221 -87
l-33 -20 -22 29 c-12 15 -34 41 -50 57 -26 26 -32 28 -78 22 -27 -4 -86 -18
-132 -31 l-82 -24 -39 40 c-41 42 -77 50 -111 26 -16 -12 -21 -10 -46 15 -22
23 -32 27 -46 20 -10 -5 -31 -8 -48 -5 -55 8 -249 8 -288 0 -30 -6 -41 -15
-54 -43 -21 -42 -31 -43 -195 -8 -130 27 -173 26 -218 -6 -42 -30 -190 -98
-275 -126 -55 -18 -99 -26 -140 -25 -88 1 -156 -40 -228 -141 -30 -42 -53 -78
-51 -81 3 -2 -2 -10 -11 -17 -19 -15 -19 -57 0 -135 24 -99 24 -100 -45 -115
-33 -7 -60 -16 -60 -20 0 -5 22 -2 50 5 29 8 74 11 107 8 33 -3 133 4 232 17
173 21 266 46 356 93 22 12 41 22 43 23 1 1 -1 12 -6 25 -5 13 -12 47 -16 75
-6 47 -5 51 20 65 15 7 48 46 75 85 27 40 54 74 61 77 7 3 -2 6 -21 6 -26 1
-48 -11 -107 -59 -84 -67 -129 -84 -279 -105 -55 -7 -107 -16 -115 -20 -8 -3
-28 -24 -43 -47 -25 -35 -27 -44 -18 -71 14 -38 14 -97 1 -97 -5 0 -10 4 -10
9 0 5 -16 30 -35 55 l-35 46 20 40 c11 21 20 48 20 58 0 11 16 30 39 45 42 28
101 82 101 93 0 3 -14 -6 -31 -20 -27 -23 -83 -35 -131 -27 -4 0 -19 -17 -34
-38 -20 -32 -34 -41 -66 -46 -21 -4 -41 -5 -43 -3 -2 2 17 36 43 75 50 77 63
86 157 98 112 15 428 140 488 193 26 23 102 20 240 -11 66 -14 121 -28 124
-31 9 -8 -8 -46 -21 -46 -7 0 -25 -13 -41 -30 -16 -16 -25 -30 -21 -30 5 0 3
-7 -4 -15 -13 -15 -5 -39 11 -29 5 3 7 9 4 13 -2 5 4 16 15 26 12 11 16 21 11
25 -6 3 0 12 12 19 20 13 21 13 8 -2 -7 -10 -10 -17 -6 -17 5 0 1 -8 -8 -18
-10 -10 -14 -22 -10 -25 3 -4 -2 -17 -13 -29 -10 -12 -13 -18 -7 -14 14 8 18
-10 4 -18 -5 -3 -36 6 -70 19 -33 14 -73 25 -88 24 -20 0 -13 -4 25 -14 29 -8
69 -23 89 -33 l37 -19 -3 -62 c-2 -42 1 -61 9 -61 8 0 11 13 7 38 -2 20 4 69
13 107 22 88 94 256 117 273 18 13 216 17 285 6 l38 -7 -20 -36 c-26 -48 -139
-389 -146 -444 -7 -48 9 -137 31 -180 7 -15 11 -27 7 -27 -20 0 -213 80 -257
106 -52 31 -61 49 -65 119 l-2 40 -8 -39 c-7 -35 13 -136 27 -136 3 0 3 7 -1
15 -3 8 -4 15 -2 15 2 0 39 -19 82 -42 86 -46 291 -119 312 -111 7 3 26 25 43
50 21 29 36 42 46 39 8 -3 35 -6 59 -6 46 0 84 -25 84 -55 0 -22 -17 -18 -73
16 -56 34 -66 30 -68 -31 0 -19 -2 -45 -5 -58 -2 -12 1 -64 6 -115 6 -50 10
-103 11 -117 0 -14 3 -20 5 -13 4 8 26 -2 65 -28 47 -33 59 -46 59 -67 0 -43
-13 -56 -41 -42 -38 20 -79 62 -79 82 0 10 -3 18 -8 18 -4 0 -5 -21 -3 -47 3
-36 6 -42 10 -24 6 22 7 23 21 6 8 -10 31 -28 52 -41 28 -18 39 -33 44 -60 9
-51 -5 -58 -51 -27 -48 32 -64 51 -66 78 -1 16 -2 17 -6 3 -2 -9 1 -26 6 -37
6 -11 7 -22 2 -25 -5 -3 -7 -68 -4 -143 5 -172 12 -365 13 -378 1 -12 -16 -94
-25 -116 -3 -9 1 -21 9 -28 14 -11 14 -15 0 -35 -8 -13 -20 -59 -26 -104 -10
-71 -10 -88 5 -135 9 -30 28 -66 42 -81 14 -15 25 -32 25 -38 0 -16 13 -1 16
17 1 9 -2 12 -9 8 -7 -4 -6 1 2 10 13 16 14 16 27 0 12 -16 13 -14 7 17 l-6
35 23 -20 c20 -17 23 -18 17 -2 -4 9 -3 17 2 17 5 0 11 9 14 21 3 12 10 18 16
15 6 -4 19 11 31 34 11 22 25 40 30 40 6 0 9 24 8 53 -1 51 -1 51 -7 12 -8
-55 -50 -135 -67 -128 -8 3 -18 -6 -24 -23 -10 -24 -13 -26 -26 -13 -11 12
-12 21 -4 45 7 19 7 44 1 69 l-9 40 -1 -46 c-1 -25 -4 -68 -8 -94 -6 -45 -7
-46 -19 -24 l-13 24 -1 -30 c-2 -30 -2 -30 -11 -5 -5 14 -13 57 -18 95 l-10
70 3 -72 c2 -40 0 -73 -4 -73 -4 0 -13 19 -19 43 -13 46 -1 171 21 210 l12 22
7 -25 c7 -25 7 -25 8 -2 1 13 5 20 11 17 9 -6 90 30 100 45 3 4 12 9 20 12 17
5 40 -40 40 -78 0 -13 4 -24 9 -24 16 0 -22 131 -46 161 -7 9 -10 19 -6 22 3
4 1 7 -6 7 -8 0 -10 11 -5 35 4 25 1 43 -10 60 -10 15 -12 25 -5 25 7 0 9 23
4 78 -4 42 -7 97 -6 122 1 25 -3 51 -8 59 -6 10 -4 19 6 29 10 10 13 25 9 46
-4 17 -6 53 -6 79 1 27 -4 55 -10 62 -8 10 -8 19 0 35 13 24 12 159 -2 176 -5
7 -4 22 3 37 7 16 9 39 3 64 -11 52 -11 135 0 150 4 7 6 24 3 39 -3 20 -1 24
12 19 9 -4 66 -9 126 -12 89 -5 115 -10 138 -26 15 -12 27 -29 27 -38 0 -18
38 -50 74 -63 15 -5 17 -9 8 -18 -20 -20 -13 -46 17 -67 20 -15 28 -27 24 -40
-4 -15 6 -27 35 -48 26 -18 40 -35 39 -47 -2 -15 9 -24 43 -37 34 -13 44 -21
42 -36 -2 -13 9 -26 37 -41 29 -16 39 -28 35 -40 -5 -16 -5 -16 6 0 29 47 155
42 198 -7 12 -14 22 -21 22 -16 0 14 -37 51 -50 51 -5 0 -12 11 -16 24 -3 15
-22 33 -48 47 -24 12 -47 32 -52 43 -11 24 2 83 23 104 7 7 13 18 13 23 0 34
98 -23 178 -104 82 -82 76 -63 56 -202 -9 -56 -12 -58 -47 -33 -36 26 -150 38
-184 19 -16 -8 -29 -6 -57 8 -20 11 -36 15 -36 11 0 -5 17 -16 38 -25 25 -11
38 -24 39 -37 3 -28 42 -68 67 -68 12 -1 29 -14 41 -33 11 -17 34 -36 50 -41
17 -6 31 -11 33 -12 1 -1 -3 -14 -9 -30 -20 -48 -19 -51 23 -98 l39 -45 -11
-58 c-10 -56 -10 -59 16 -79 25 -21 26 -25 19 -85 -3 -35 -9 -73 -11 -84 -4
-17 -4 -18 6 -3 5 9 13 44 17 78 9 87 27 91 20 4 -4 -44 -3 -60 2 -44 5 14 9
42 10 64 1 36 2 38 29 32 15 -4 111 -38 214 -77 103 -38 191 -69 196 -69 17 0
29 -63 19 -103 -7 -28 -14 -36 -26 -33 -9 3 -52 10 -96 16 -44 6 -95 13 -113
16 -20 3 -32 1 -28 -4 3 -5 33 -12 67 -16 34 -3 90 -11 125 -18 55 -10 64 -14
64 -33 0 -22 0 -22 -82 -8 -207 33 -208 34 -208 57 0 17 -2 18 -10 6 -5 -8
-10 -18 -10 -21 0 -10 50 -27 100 -35 25 -3 52 -7 60 -9 8 -1 38 -6 65 -9 83
-12 82 -11 84 -66 0 -27 1 -52 2 -57 1 -4 -4 -21 -11 -38 -7 -16 -14 -53 -15
-80 -1 -30 -12 -68 -26 -95 -13 -25 -26 -63 -29 -85 -6 -47 -30 -56 -79 -30
-17 8 -31 13 -31 10 0 -9 81 -46 89 -40 5 3 12 -18 16 -46 4 -29 16 -70 26
-93 18 -40 11 -58 -14 -38 -19 15 -65 23 -72 12 -3 -5 7 -12 22 -16 61 -14 87
-22 70 -23 -25 -1 -107 20 -107 28 0 3 -17 7 -37 9 -53 3 -40 -3 66 -33 77
-22 95 -25 102 -14 6 9 9 -1 9 -28 0 -24 4 -43 9 -43 5 0 20 17 32 38 13 20
26 39 31 42 4 3 10 26 14 50 4 25 4 42 1 39 -4 -3 -8 -14 -10 -25 -4 -30 -48
-114 -58 -114 -6 0 -7 5 -4 11 4 5 -10 44 -31 86 -34 70 -37 82 -36 160 1 68
5 91 25 126 13 23 28 41 35 40 81 -17 89 -16 127 19 37 34 37 35 26 71 -9 27
-10 46 -2 69 12 36 16 118 12 257 -1 14 1 26 3 28 2 2 35 -3 72 -12 131 -31
210 -27 472 26 130 27 265 57 300 68 l63 19 10 -26 c68 -178 72 -314 20 -721
-8 -67 -26 -92 -65 -90 -17 0 -15 3 9 14 42 19 14 19 -34 -1 -33 -13 -43 -13
-63 -2 -13 7 -39 13 -58 14 -19 1 -48 5 -65 8 -16 3 -5 -3 25 -15 42 -17 79
-22 158 -23 133 -2 132 -1 126 -177 l-4 -126 36 -73 c41 -85 38 -109 -18 -135
-18 -8 -25 -13 -15 -10 9 2 17 0 17 -5 0 -6 -4 -10 -9 -10 -5 0 -17 -3 -27 -7
-12 -5 -15 -3 -9 6 6 10 3 11 -14 2 -28 -15 -111 -31 -111 -21 0 5 14 13 30
19 17 5 30 12 30 15 0 6 -40 -8 -73 -26 -28 -15 -98 -28 -91 -17 3 5 11 9 19
9 8 0 16 4 20 10 3 5 -7 5 -25 -1 -16 -6 -33 -15 -36 -20 -3 -5 -20 -9 -37 -8
-31 1 -31 1 18 24 66 31 50 31 -27 0 -64 -26 -127 -35 -98 -14 12 9 11 10 -5
4 -38 -12 -80 -18 -72 -9 4 4 31 18 60 30 l52 22 -57 0 c-36 1 -72 -7 -97 -19
-22 -10 -55 -19 -73 -19 -32 1 -32 1 -13 16 19 15 19 15 -5 9 -20 -5 -31 0
-51 22 -24 26 -27 37 -32 136 -3 60 -2 105 2 100 4 -4 29 -38 55 -75 26 -38
49 -68 52 -68 7 0 -3 17 -35 60 -14 19 -49 69 -77 112 l-51 78 -28 -53 c-16
-28 -51 -86 -78 -127 -38 -58 -50 -86 -54 -125 -9 -101 -33 -205 -81 -343 -16
-49 -26 -101 -28 -154 -3 -80 -19 -142 -34 -133 -7 5 -100 -73 -141 -117 -9
-10 -19 -18 -23 -18 -19 0 3 32 76 109 l83 86 -78 -75 c-86 -83 -100 -101 -91
-124 5 -12 25 2 87 59 45 41 83 73 84 71 10 -10 -34 -75 -68 -101 -21 -16 -38
-34 -39 -39 0 -6 16 6 37 25 20 18 34 27 30 19 -18 -49 -15 -49 12 0 20 37 30
48 31 35 1 -11 3 -29 5 -39 2 -11 5 -56 6 -101 3 -79 2 -84 -29 -123 -29 -36
-39 -41 -100 -52 -145 -25 -159 -28 -127 -29 46 -2 186 28 212 44 25 17 30 12
52 -57 11 -34 10 -43 -15 -98 -15 -33 -33 -60 -40 -60 -7 0 -15 -4 -18 -8 -2
-4 5 -8 16 -8 16 0 28 16 51 66 37 81 40 147 10 189 -18 24 -19 30 -8 42 11
11 11 40 4 147 -7 110 -6 139 6 162 8 15 17 58 20 96 11 117 13 126 48 239 31
99 67 269 67 317 0 11 17 45 39 76 21 31 53 83 71 115 17 31 35 57 40 57 13 0
31 -90 37 -193 6 -96 8 -102 40 -138 32 -36 37 -37 136 -49 68 -9 151 -11 247
-6 144 7 304 27 317 39 11 12 32 -14 26 -31 -5 -13 -3 -14 6 -6 10 9 10 17 1
33 -12 23 -8 34 22 67 19 22 19 22 -15 91 l-35 68 26 13 c22 10 28 9 49 -14
17 -18 29 -24 41 -18 9 4 32 7 50 6 18 -1 41 2 51 7 12 7 21 7 28 0 21 -21
183 77 183 111 0 4 -19 -10 -42 -32 -23 -21 -48 -38 -57 -38 -8 0 -31 15 -50
33 l-34 32 28 -39 c28 -36 28 -39 11 -51 -26 -19 -41 -10 -77 46 -34 54 -33
69 6 95 23 15 28 15 36 3 7 -12 9 -11 9 2 0 12 7 15 28 11 39 -7 60 -42 25
-42 -15 0 -15 -1 2 -13 10 -8 15 -19 11 -25 -4 -7 -5 -12 -3 -12 3 0 13 12 22
28 10 15 15 24 10 20 -4 -4 -19 16 -33 44 -15 28 -38 58 -52 66 -15 10 -20 11
-13 3 6 -8 9 -21 6 -30 -3 -12 -2 -13 4 -3 7 10 14 8 28 -8 10 -11 13 -20 7
-20 -7 0 -12 5 -12 10 0 11 -29 8 -65 -6 -19 -7 -19 -7 -2 13 28 33 19 39 -13
8 -34 -32 -50 -30 -20 3 34 36 22 38 -17 1 -33 -31 -34 -31 -15 -5 12 16 20
31 18 33 -5 5 -100 -66 -104 -78 -6 -15 -20 -10 -26 9 -2 9 -2 1 1 -20 4 -29
1 -37 -14 -41 -11 -3 -6 -5 12 -6 17 0 35 -4 41 -8 5 -5 0 0 -11 11 -20 18
-20 18 8 42 16 13 35 24 43 24 12 0 11 -6 -5 -29 -12 -17 -18 -36 -15 -46 5
-11 0 -18 -15 -22 -11 -3 -18 -9 -15 -14 8 -14 -9 -11 -36 7 l-25 16 22 -20
22 -19 -24 -13 c-13 -7 -27 -10 -33 -6 -5 3 -7 55 -4 128 4 113 7 126 32 163
64 93 73 122 67 211 -4 64 -2 84 8 88 8 3 15 0 17 -5 2 -6 12 0 23 13 11 13
13 17 5 11 -18 -17 -33 -17 -24 0 6 10 4 10 -7 0 -17 -16 -26 -16 -26 0 0 8
16 13 49 13 l48 0 -31 -32 c-18 -18 -37 -30 -42 -27 -6 3 -7 1 -3 -5 4 -7 17
-12 29 -12 15 0 18 3 10 8 -9 6 -3 18 22 42 43 42 59 32 19 -13 -21 -23 -17
-21 13 7 24 22 45 37 48 35 3 -3 -6 -16 -20 -29 -29 -28 -32 -40 -7 -40 27 1
65 26 68 45 2 15 0 15 -19 -2 -37 -34 -51 -39 -38 -15 14 27 55 56 59 42 2 -6
9 -7 15 -3 7 4 6 -1 -2 -10 -7 -9 -9 -17 -5 -17 5 0 9 -17 8 -37 0 -22 9 -55
21 -78 12 -22 20 -45 18 -52 -3 -7 5 -50 16 -95 11 -46 25 -108 31 -139 6 -31
17 -65 25 -75 12 -16 12 -12 0 26 -24 77 -65 272 -59 281 3 5 -4 24 -14 42
-12 19 -21 52 -22 82 -3 84 -3 84 38 91 57 10 89 30 96 61 4 15 9 105 12 199
l5 172 -25 19 c-23 18 -24 25 -19 76 5 45 2 62 -15 90 -16 29 -19 46 -15 102
5 58 2 74 -20 123 -21 45 -38 129 -82 397 -30 187 -59 369 -65 405 -6 36 -23
90 -37 120 -17 36 -26 74 -27 110 -1 43 -8 64 -28 90 -14 19 -34 55 -44 80 -9
25 -41 77 -70 115 -51 67 -210 229 -233 236 -7 3 -15 33 -20 69 -7 56 -9 59
-9 20 0 -25 3 -71 7 -103 6 -49 4 -60 -11 -74 -14 -13 -21 -14 -30 -5 -9 9
-18 6 -39 -14 -19 -18 -33 -24 -48 -19 -12 3 -21 10 -21 15 0 5 -11 -2 -25
-16 -19 -19 -29 -23 -43 -15 -14 7 -25 6 -41 -5 -14 -10 -32 -13 -47 -10 -13
4 -33 2 -44 -4 -22 -12 -73 -3 -65 11 3 4 -10 2 -30 -7 -27 -11 -40 -12 -56
-3 -12 6 -32 8 -45 5 -16 -4 -30 0 -42 12 -17 17 -22 17 -43 6 -21 -11 -27
-10 -45 7 -18 17 -25 18 -48 8 -22 -10 -29 -9 -45 5 -12 11 -21 14 -26 7 -9
-15 -41 -14 -57 3 -10 10 -19 11 -32 4 -14 -8 -28 -3 -62 22 -24 17 -49 28
-55 25 -5 -4 -20 1 -32 12 -22 18 -22 18 -4 -3 14 -17 15 -23 5 -31 -16 -12
-72 18 -60 33 4 5 3 6 -2 2 -6 -4 -17 -2 -25 6 -9 8 -24 16 -33 17 -16 4 -15
9 8 59 17 38 24 66 21 90 -3 24 2 46 15 68 11 18 18 35 16 37 -2 3 -14 -12
-25 -33z m-1430 -216 c18 -14 24 -32 8 -21 -19 11 -66 -65 -93 -152 -88 -273
-109 -437 -60 -485 17 -18 22 -19 22 -7 0 14 48 45 56 36 6 -6 -46 -77 -57
-77 -23 0 -69 35 -78 59 -17 45 -31 105 -31 137 0 27 92 334 121 402 16 40 73
122 84 122 5 0 18 -7 28 -14z m2620 -61 c9 -25 13 -45 9 -45 -17 0 -72 60 -72
78 0 51 42 29 63 -33z m-2475 33 l21 -23 -59 0 c-66 0 -84 10 -56 31 29 21 70
17 94 -8z m954 -5 c9 -10 26 -38 38 -63 12 -25 35 -56 51 -70 l29 -25 -50 -70
c-80 -113 -107 -171 -124 -269 -3 -15 -12 -39 -21 -52 -24 -38 -92 -83 -115
-77 -32 9 -23 29 19 42 56 16 101 73 101 126 0 52 25 104 101 210 32 46 59 89
59 97 0 7 -15 -10 -33 -37 -19 -28 -54 -79 -79 -115 -25 -36 -49 -78 -54 -93
l-9 -28 -20 38 c-11 21 -36 68 -56 105 l-37 67 28 80 c36 101 33 97 88 126 57
29 65 30 84 8z m320 -3 c10 -11 13 -22 8 -25 -6 -4 -10 -1 -10 6 0 10 -3 10
-12 1 -18 -18 -25 -15 -25 13 0 30 16 32 39 5z m-877 -97 c-6 -17 -10 -19 96
31 94 45 206 80 213 68 2 -4 7 -22 11 -41 5 -24 10 -30 16 -20 4 7 11 10 15 6
4 -3 2 -12 -4 -20 -6 -7 -13 -24 -15 -37 -3 -14 -16 -70 -30 -125 -33 -131
-47 -226 -47 -321 0 -63 -24 -230 -35 -242 -2 -2 -25 6 -50 17 -26 12 -54 21
-61 21 -8 0 -14 5 -14 11 0 15 -72 99 -81 93 -4 -2 -6 4 -5 13 4 26 -13 59
-38 73 -16 8 -23 21 -23 42 0 22 -8 38 -26 52 -15 12 -27 32 -27 44 0 12 -11
29 -25 38 -14 9 -25 26 -25 39 0 12 -11 34 -25 49 -14 15 -22 33 -18 42 3 8
-4 28 -16 44 -11 16 -21 33 -21 38 0 5 -13 23 -30 42 -16 18 -27 36 -25 40 3
4 -4 19 -14 32 l-19 24 86 22 c143 36 150 35 199 -17 24 -26 41 -52 38 -58z
m429 79 c-24 -19 -63 -118 -92 -232 -25 -96 -30 -128 -37 -224 -4 -53 -11 -84
-22 -94 -15 -15 -16 -10 -9 63 10 119 15 147 51 291 37 147 71 214 108 214
l22 0 -21 -18z m360 8 c-7 -7 -19 -7 -35 -1 -23 9 -22 10 11 10 23 1 31 -2 24
-9z m-1291 -14 c9 -7 17 -24 18 -37 l0 -24 12 25 c14 31 26 40 52 40 23 0 96
-37 107 -54 14 -21 8 -26 -17 -14 -19 9 -33 8 -64 -4 -26 -11 -44 -12 -55 -6
-10 6 -20 8 -23 5 -2 -3 5 -8 16 -12 14 -4 21 -15 21 -33 1 -27 1 -27 15 6 14
32 25 36 75 32 22 -1 90 -54 90 -69 0 -4 -36 -6 -81 -6 -57 1 -76 -2 -67 -10
8 -5 12 -17 10 -26 -1 -9 8 -27 22 -40 14 -13 26 -34 26 -46 0 -11 14 -33 30
-46 17 -14 30 -33 30 -42 0 -9 14 -30 30 -47 17 -16 30 -40 30 -52 0 -12 11
-33 24 -45 13 -13 22 -30 19 -40 -2 -10 10 -31 32 -54 20 -20 32 -37 27 -37
-5 0 -15 6 -21 14 -7 9 -49 15 -125 20 -63 4 -137 13 -163 21 -26 8 -72 17
-101 20 -69 7 -151 23 -164 31 -16 10 -4 92 36 249 69 274 99 327 159 281z
m1557 -36 c0 -9 -15 -31 -33 -48 l-34 -33 -11 40 c-14 46 -9 65 21 79 25 11
57 -10 57 -38z m-401 37 c-2 -1 -13 -9 -24 -17 -19 -14 -19 -14 -6 3 7 9 18
17 24 17 6 0 8 -1 6 -3z m1419 -63 c7 -14 12 -34 12 -45 0 -17 -4 -16 -42 11
-22 17 -44 27 -47 24 -3 -4 0 -9 7 -11 7 -3 26 -16 42 -30 27 -22 30 -31 30
-79 l0 -55 -31 36 c-17 19 -37 35 -45 35 -14 0 -17 12 -18 90 -1 57 26 86 60
64 11 -8 26 -26 32 -40z m-983 -33 c3 -16 -5 -33 -25 -54 -25 -26 -33 -30 -47
-21 -31 19 -26 43 13 79 39 36 51 35 59 -4z m31 -82 c5 -31 2 -39 -35 -72 -23
-21 -46 -35 -51 -32 -6 4 -10 22 -10 41 0 25 9 44 37 74 39 45 51 42 59 -11z
m-2908 36 c-5 -6 -28 -11 -88 -20 -35 -6 -35 -6 -10 9 23 14 111 23 98 11z
m2518 -65 c11 -7 30 -28 40 -48 30 -59 28 -60 -10 -4 -49 70 -56 66 -10 -5 42
-68 58 -87 48 -58 -4 11 -4 17 0 13 4 -3 9 -17 10 -30 3 -24 145 -237 174
-260 9 -7 -10 23 -41 67 -49 68 -77 115 -81 135 -1 3 -20 39 -44 81 -23 42
-42 79 -42 83 0 8 44 8 94 -1 27 -4 43 -14 55 -34 9 -15 39 -43 67 -61 l49
-34 -3 32 c-3 27 1 35 25 47 15 8 37 24 47 36 25 27 36 18 36 -29 0 -31 -6
-44 -35 -69 -20 -17 -31 -31 -25 -31 7 0 25 14 42 30 17 17 33 29 36 26 7 -8
6 -82 -3 -96 -4 -6 -21 -20 -39 -31 -22 -13 -26 -19 -13 -19 10 0 31 14 46 31
l28 31 7 -27 c9 -35 -11 -74 -53 -102 -42 -28 -28 -30 17 -3 18 11 37 18 43
15 5 -4 9 -26 9 -50 0 -36 -5 -47 -32 -70 l-33 -28 34 8 c39 8 51 -3 51 -51 0
-35 -10 -46 -55 -62 -16 -5 -37 -13 -46 -17 -23 -9 -31 39 -14 87 10 31 10 38
-2 43 -12 4 -14 15 -8 53 4 26 3 44 -1 39 -12 -11 -16 -85 -5 -91 6 -4 6 -20
-1 -43 -7 -26 -7 -48 1 -75 7 -21 9 -53 6 -72 -4 -19 -2 -43 3 -53 7 -13 7
-34 1 -63 -6 -27 -6 -47 0 -53 5 -5 7 -35 4 -67 -3 -31 -2 -60 3 -63 5 -3 7
16 6 42 -4 51 7 68 49 76 12 3 26 10 29 16 10 15 40 -29 40 -57 0 -26 -13 -38
-63 -54 -24 -7 -35 -16 -30 -21 6 -6 21 -6 38 1 33 12 33 12 41 -28 6 -29 3
-32 -45 -57 -60 -30 -75 -25 -67 19 4 22 3 27 -4 16 -13 -20 -13 -57 0 -65 15
-9 12 -25 -5 -25 -8 0 -30 -9 -50 -20 -20 -11 -44 -20 -54 -20 -23 0 -168 96
-244 162 -32 28 -60 48 -63 45 -6 -6 125 -112 204 -164 29 -20 51 -38 48 -40
-3 -3 -47 -5 -98 -5 -100 0 -135 -10 -185 -52 -37 -31 -68 -28 -103 9 l-21 23
26 20 c38 30 109 39 151 18 19 -8 34 -12 34 -8 0 5 -19 18 -42 29 -24 12 -64
32 -91 45 -31 15 -45 28 -42 37 3 8 10 49 16 90 6 42 12 77 13 79 2 1 16 -8
32 -20 16 -12 -25 30 -90 93 -66 63 -122 114 -125 114 -3 1 -21 9 -39 18 -23
13 -31 23 -28 35 3 9 12 55 20 102 8 46 19 86 25 88 16 5 95 72 104 87 4 8 12
38 17 67 14 70 56 158 115 241 l49 68 15 -25 c8 -14 25 -30 37 -36z m-969 19
c27 -26 32 -65 7 -55 -9 3 -38 6 -65 6 -61 0 -96 28 -78 61 10 19 17 21 62 16
32 -4 59 -14 74 -28z m-1064 9 c-55 -72 -77 -97 -84 -92 -4 2 -5 12 -2 22 7
18 5 17 -17 -12 -12 -16 -12 -18 -1 -12 9 6 12 4 9 -5 -3 -8 -10 -14 -15 -14
-6 0 -15 -4 -20 -9 -5 -5 -3 -6 5 -2 13 8 17 -10 3 -18 -15 -9 -33 44 -20 60
6 8 15 12 19 9 4 -2 19 9 34 26 17 18 33 28 42 25 9 -3 12 -1 9 4 -9 15 4 30
27 30 15 0 18 -3 11 -12z m3344 -47 c24 -35 30 -80 14 -109 -5 -9 -11 -39 -14
-66 -7 -52 -16 -70 -25 -46 -3 8 -20 30 -39 49 -37 37 -39 47 -20 84 11 21 16
23 33 15 10 -6 27 -20 36 -32 19 -23 24 -15 8 13 -5 10 -23 24 -40 31 -26 11
-30 18 -30 50 0 20 3 40 7 44 15 15 48 -1 70 -33z m-1581 -172 c24 -26 17 -66
-18 -104 -18 -20 -44 -37 -57 -40 -12 -2 -29 -9 -37 -16 -19 -16 -18 -49 2
-49 15 0 16 -9 10 -61 -8 -78 -42 -195 -59 -202 -14 -5 -66 -1 -73 6 -2 2 0
36 6 75 7 49 16 78 30 92 11 11 20 28 20 39 0 10 3 34 6 52 4 19 4 31 0 28 -4
-4 -8 -15 -10 -25 -2 -11 -6 -36 -10 -56 -4 -21 -11 -38 -15 -38 -13 0 10 103
27 123 8 9 12 17 7 17 -4 0 -1 7 6 16 9 11 23 14 44 11 31 -5 32 -5 25 31 -5
30 -10 37 -28 36 -19 0 -22 4 -22 42 0 41 22 160 36 197 5 13 17 -4 51 -70 24
-48 51 -95 59 -104z m-699 140 c35 -13 73 -48 73 -67 0 -10 -5 -12 -17 -6 -10
5 -38 7 -63 6 -54 -2 -90 19 -90 53 0 22 4 25 34 25 19 0 47 -5 63 -11z
m-1608 -25 c-9 -12 -15 -12 -27 -2 -13 11 -15 10 -9 -4 7 -20 -8 -34 -19 -17
-5 9 -10 8 -18 -2 -6 -8 -17 -15 -25 -17 -7 -2 -2 10 13 25 18 19 37 29 62 30
30 2 34 0 23 -13z m3544 -28 c125 -45 181 -169 127 -281 -35 -73 -62 -88 -145
-82 -41 3 -60 1 -45 -3 14 -4 39 -9 55 -10 l30 -1 -25 -11 c-46 -19 -141 -13
-193 12 -47 22 -117 92 -117 116 0 7 -4 16 -10 19 -15 9 0 -25 29 -68 53 -77
184 -123 279 -98 60 17 123 69 155 130 36 65 45 63 12 -4 -14 -26 -25 -54 -25
-60 0 -7 -7 -19 -17 -26 -9 -8 -24 -32 -34 -54 -18 -39 -51 -75 -153 -166 -26
-24 -62 -59 -80 -77 -100 -107 -171 -167 -192 -164 -11 2 -37 -12 -59 -32 -22
-19 -35 -35 -28 -36 7 0 16 6 20 13 11 18 55 47 70 47 11 0 11 -5 0 -27 -8
-16 -18 -50 -22 -78 -4 -27 -14 -58 -23 -69 -16 -17 -64 -46 -77 -46 -10 0 -5
68 9 108 8 22 12 43 8 46 -5 6 -12 47 -11 71 6 235 5 364 -3 420 -6 39 -12 95
-13 126 -1 30 -7 64 -13 75 -5 10 -8 31 -5 45 l5 26 66 -24 c37 -14 75 -29 85
-34 14 -8 17 -5 17 16 0 64 60 143 135 176 47 22 134 24 188 5z m-1853 -52
c58 -38 53 -59 -13 -59 -71 0 -106 27 -98 78 3 17 74 5 111 -19z m2131 -41
c38 -47 48 -92 31 -136 -7 -16 -11 -14 -32 15 -13 18 -29 37 -37 41 -16 10
-17 38 -1 72 13 30 20 31 39 8z m-2086 -38 c32 -16 60 -58 50 -76 -4 -5 -15
-4 -28 3 -12 6 -24 10 -27 8 -33 -18 -52 -18 -75 2 -26 23 -33 63 -12 71 24
10 59 7 92 -8z m2501 -50 c3 -26 13 -53 21 -60 19 -19 30 -60 49 -175 8 -52
33 -203 54 -335 22 -132 44 -271 50 -309 6 -38 22 -88 35 -111 23 -39 34 -113
19 -128 -4 -3 -8 -25 -9 -48 -2 -26 0 -38 5 -30 6 10 12 5 25 -19 24 -47 15
-133 -17 -161 -13 -11 -16 -17 -8 -13 23 13 42 14 62 3 17 -9 18 -23 14 -167
-5 -194 -14 -236 -58 -251 -92 -32 -332 -37 -387 -8 -21 11 -22 18 -24 152
l-2 141 135 2 c142 2 285 18 310 34 11 7 8 8 -10 4 -64 -14 -245 -27 -340 -24
-98 3 -105 4 -108 24 -3 21 1 22 105 23 122 1 290 19 313 33 10 6 1 7 -25 3
-22 -3 -73 -9 -112 -13 l-73 -8 23 25 c22 25 22 25 -15 -2 -20 -15 -47 -27
-59 -27 -20 0 -20 1 7 22 16 12 34 26 39 31 15 15 -15 -2 -52 -29 -17 -13 -44
-24 -59 -24 -26 0 -26 1 14 30 23 17 42 31 42 33 0 2 -17 1 -37 -2 -32 -4 -34
-5 -15 -10 23 -6 22 -7 -16 -29 -22 -12 -51 -22 -66 -22 -22 0 -27 7 -42 56
-16 54 -15 56 5 75 17 16 21 32 21 87 1 44 6 74 16 87 8 11 21 40 28 65 13 44
12 52 -30 197 l-43 150 14 84 c8 46 23 125 34 174 22 102 37 219 21 171 -5
-15 -12 -52 -16 -82 -11 -95 -19 -66 -16 62 2 68 0 124 -5 124 -4 0 -9 -55 -9
-123 -1 -141 -8 -233 -24 -332 -12 -75 -7 -104 55 -305 23 -74 23 -76 5 -123
-25 -66 -41 -88 -86 -119 -47 -32 -133 -56 -112 -31 9 11 -1 9 -31 -6 -23 -12
-49 -20 -57 -17 -7 3 -30 -2 -50 -10 -20 -8 -38 -13 -41 -10 -3 3 10 11 28 19
19 8 43 22 54 31 11 9 -15 -1 -58 -23 -42 -22 -89 -40 -105 -40 -15 1 -44 -3
-64 -9 -54 -14 -47 -5 17 24 30 14 55 27 55 29 0 6 -41 -10 -97 -38 -26 -13
-66 -27 -88 -30 l-40 -6 55 29 c72 38 58 38 -25 0 -84 -39 -119 -39 -40 -1 78
38 66 39 -17 2 -56 -26 -77 -30 -147 -29 -44 1 -81 3 -81 4 0 2 17 12 38 23
20 11 33 20 29 21 -4 0 -26 -9 -48 -20 -52 -27 -75 -16 -81 42 -6 58 -3 237 5
244 4 4 34 -3 68 -15 33 -13 63 -21 65 -18 2 2 -23 14 -55 26 -67 24 -95 46
-87 68 4 8 9 25 12 36 4 20 43 53 98 84 24 13 116 95 185 164 25 25 55 51 67
57 11 6 32 27 45 46 13 20 29 36 35 36 6 0 24 14 40 30 16 17 50 46 76 64 25
19 50 45 54 58 4 12 19 39 35 58 15 19 35 51 43 71 8 19 22 41 30 48 9 7 28
51 43 98 27 84 28 85 58 80 43 -6 170 12 235 33 83 28 88 27 96 -25z m-444
-12 c33 -38 39 -61 28 -103 -14 -50 -27 -58 -41 -23 -6 15 -19 38 -30 49 -19
20 -19 24 -5 58 17 40 26 44 48 19z m-1989 -48 c34 -24 41 -34 35 -52 -2 -5
-28 -9 -58 -10 -47 -2 -58 1 -82 24 -45 43 -36 61 32 62 22 1 49 -8 73 -24z
m-595 -11 c2 -1 -6 -7 -17 -14 -24 -12 -41 -6 -41 16 0 11 7 13 28 8 15 -4 29
-8 30 -10z m2543 -40 c29 -47 27 -83 -8 -153 l-28 -56 -6 45 c-4 25 -12 59
-19 75 -11 27 -10 37 8 78 11 26 23 47 26 47 2 0 14 -16 27 -36z m-2345 -91
c12 -63 -24 -65 -88 -5 -26 24 -39 78 -22 94 3 4 28 -8 55 -24 39 -24 50 -38
55 -65z m467 32 c29 -22 47 -43 47 -56 0 -11 -3 -18 -8 -15 -4 2 -26 1 -48 -3
-35 -7 -47 -4 -80 19 -62 42 -60 90 3 90 27 0 51 -10 86 -35z m-511 -85 c29 0
48 -34 48 -87 0 -29 -4 -53 -8 -53 -11 0 -83 52 -99 71 -11 14 -17 61 -14 107
1 23 1 23 32 -7 17 -17 35 -31 41 -31z m2324 25 c26 -63 14 -125 -35 -169 -21
-19 -21 -19 -21 11 0 16 -5 44 -11 60 -10 31 4 86 32 120 16 19 18 17 35 -22z
m-1673 -48 c49 -20 55 -32 41 -85 -6 -22 -7 -23 -24 -4 -10 10 -20 28 -24 39
-3 11 -18 30 -31 43 -30 28 -34 18 -5 -12 27 -29 25 -38 -8 -38 -15 0 -41 -4
-59 -9 -27 -8 -36 -5 -63 18 -29 24 -32 29 -21 50 11 20 19 22 79 20 39 -1 87
-11 115 -22z m1062 -109 c-2 -138 -3 -141 -15 -133 -6 4 -8 11 -5 16 9 14 -6
11 -24 -5 -48 -42 -85 -23 -71 37 4 20 4 53 0 72 -13 56 0 88 41 98 19 5 38
13 44 18 26 26 32 7 30 -103z m538 14 c2 -45 -2 -55 -32 -86 -19 -20 -39 -36
-43 -36 -4 0 -8 30 -8 66 0 61 2 68 32 95 38 37 49 28 51 -39z m-2278 11 c19
-16 43 -35 55 -43 21 -15 42 -100 25 -100 -5 0 -29 14 -55 30 -46 30 -69 72
-67 123 1 23 4 22 42 -10z m682 -9 c39 -30 44 -53 9 -47 -14 3 -41 0 -60 -7
-32 -10 -39 -9 -66 10 -37 27 -38 45 -2 58 47 18 83 13 119 -14z m1499 -119
c-6 -25 -73 -105 -88 -105 -7 0 -8 15 -5 43 12 78 28 119 60 149 l32 29 3 -47
c2 -26 1 -57 -2 -69z m-1462 28 c-9 -39 -13 -43 -33 -43 -30 0 -81 21 -81 34
0 24 25 36 72 36 48 0 48 0 42 -27z m1372 -10 c-4 -9 -9 -42 -13 -72 -5 -54
-33 -107 -73 -138 -27 -22 -33 -14 -27 38 6 52 31 100 80 156 32 36 42 42 33
16z m-1379 -57 c-3 -8 1 -20 9 -27 12 -10 20 -7 42 14 34 32 54 34 98 6 45
-27 44 -46 0 -41 -19 2 -51 -1 -70 -8 -32 -10 -40 -9 -71 10 -38 24 -41 30
-23 48 16 16 21 15 15 -2z m1258 -93 c-11 -69 -36 -122 -72 -153 -19 -17 -39
-28 -44 -23 -4 4 -1 36 8 70 12 51 23 70 59 103 24 22 46 40 49 40 3 0 3 -17
0 -37z m-1885 -154 c0 -46 -7 -52 -39 -32 -58 37 -71 55 -71 100 l0 44 55 -38
c49 -34 55 -42 55 -74z m912 92 c13 -5 33 -18 46 -29 l24 -21 -39 -7 c-21 -3
-49 -13 -63 -22 -48 -31 -120 -3 -120 47 0 20 6 31 18 34 31 8 110 7 134 -2z
m742 -83 c-8 -24 -16 -55 -19 -70 -6 -32 -106 -113 -129 -105 -22 9 1 98 37
142 25 31 93 74 118 75 4 0 0 -19 -7 -42z m-599 -6 l30 -15 -44 -13 c-24 -7
-54 -22 -66 -34 -29 -27 -71 -21 -105 15 l-22 23 27 18 c52 34 119 37 180 6z
m-1091 -47 c27 -18 38 -48 30 -82 -8 -30 -13 -29 -62 13 -36 31 -42 41 -42 76
l0 40 25 -16 c14 -9 36 -23 49 -31z m1542 -12 c-7 -16 -16 -48 -20 -72 -6 -44
-17 -59 -46 -62 -8 -1 -25 -3 -37 -4 -78 -8 -38 80 64 141 50 30 56 29 39 -3z
m-108 -11 c9 -7 8 -13 -7 -26 -11 -10 -28 -38 -37 -62 -18 -47 -29 -51 -109
-45 -40 4 -41 6 -19 38 24 38 58 65 108 85 49 20 48 20 64 10z m-125 -27 c-17
-14 -41 -41 -53 -60 -14 -23 -29 -35 -43 -35 -23 0 -107 35 -107 44 0 3 16 17
36 32 38 29 81 41 154 43 l45 1 -32 -25z m-1275 -119 c3 -35 2 -37 -20 -31
-41 12 -88 70 -88 110 l0 36 53 -39 c44 -33 52 -44 55 -76z m1041 64 c12 0 34
-9 49 -20 33 -24 117 -43 187 -41 28 1 68 2 90 2 35 0 80 9 136 25 18 5 18 9
20 -154 1 -56 -1 -105 -4 -108 -7 -7 -137 34 -151 47 -6 5 -20 9 -32 9 -13 0
-26 5 -29 10 -3 6 -12 10 -20 10 -8 0 -26 5 -42 11 l-28 12 25 7 c19 5 14 7
-21 7 -66 0 -86 16 -29 24 40 6 37 6 -21 6 -73 0 -106 11 -73 24 16 7 16 8 -6
7 -46 -2 -61 2 -54 14 5 7 0 9 -14 6 -14 -4 -29 3 -46 21 -15 15 -23 30 -19
34 3 4 -1 7 -10 7 -20 0 -21 15 -6 58 l11 32 32 -25 c18 -14 43 -25 55 -25z
m615 6 c-6 -29 -25 -52 -80 -99 -20 -16 -23 -16 -37 -2 -21 20 -12 64 16 84
67 49 83 58 95 53 9 -3 11 -14 6 -36z m3 -103 c-5 -54 -9 -61 -57 -106 -28
-26 -56 -44 -62 -41 -6 4 -8 27 -4 58 5 45 11 56 58 98 29 26 57 47 62 48 5 0
6 -26 3 -57z m-1649 -57 c-4 -31 -49 -33 -82 -4 -17 15 -28 38 -32 67 l-7 43
62 -42 c48 -33 61 -47 59 -64z m-50 -31 c28 -11 52 -24 52 -30 1 -5 2 -34 4
-62 4 -60 -4 -71 -58 -80 -41 -6 -66 9 -66 41 0 41 13 47 55 26 39 -20 76 -27
61 -12 -4 4 -11 7 -15 7 -18 0 -88 38 -89 48 0 7 -3 29 -5 50 -3 21 -2 37 2
35 3 -2 30 -12 59 -23z m1697 -34 c-2 -9 -4 -27 -4 -40 -1 -25 -84 -111 -107
-111 -13 0 -21 42 -16 75 2 11 29 41 60 66 54 45 74 48 67 10z m-3 -123 c-3
-24 -5 -61 -4 -83 5 -95 -6 -123 -61 -166 -57 -46 -66 -41 -59 31 3 32 10 44
36 59 17 11 43 32 56 47 20 22 16 21 -24 -9 -27 -20 -52 -34 -57 -31 -5 3 -9
24 -9 47 0 38 5 46 57 94 32 29 61 52 65 53 3 0 4 -19 0 -42z m-1602 -20 c0
-5 -4 -8 -9 -8 -6 0 -22 -11 -37 -25 -48 -45 -108 -46 -102 -3 2 16 11 24 28
26 44 4 100 25 100 36 0 12 20 -14 20 -26z m-157 -18 c-3 -11 -9 -20 -13 -20
-5 0 -6 9 -3 20 3 11 9 20 13 20 5 0 6 -9 3 -20z m1761 -212 c8 -49 -13 -91
-66 -131 -28 -20 -54 -34 -59 -31 -5 3 -9 26 -9 52 1 46 2 48 63 93 34 25 63
45 64 45 1 -1 4 -13 7 -28z m-4 -124 c0 -41 -26 -102 -59 -136 -35 -38 -34
-53 1 -21 14 13 23 15 35 7 29 -18 25 -32 -16 -59 -32 -22 -46 -25 -73 -20
-18 4 -37 9 -41 12 -13 8 14 33 37 34 20 1 20 2 1 6 -32 8 -46 24 -40 47 14
47 28 76 39 76 6 0 31 16 56 35 51 39 60 42 60 19z m1051 -191 c27 -5 27 -7
34 -113 8 -117 5 -127 -58 -219 l-30 -44 -19 37 c-19 37 -19 41 -2 197 15 135
21 159 34 154 8 -4 27 -9 41 -12z m138 -520 l-23 -24 28 -51 c23 -41 26 -52
15 -59 -25 -16 -42 -5 -71 50 l-29 54 25 26 c14 14 37 27 51 27 l27 2 -23 -25z
m-60 -144 c-19 -12 -29 -7 -47 20 -14 20 -14 22 6 28 12 3 22 10 22 17 0 6 8
-4 17 -22 14 -29 14 -35 2 -43z m-638 -220 c-25 -11 -54 -18 -65 -17 -15 3 -8
8 24 20 64 23 95 21 41 -3z m-561 -915 c16 -42 11 -51 -10 -16 -23 37 -24 42
-10 42 6 0 15 -12 20 -26z"/>
<path d="M2180 4221 c0 -33 129 -313 151 -326 6 -4 -7 26 -29 66 -22 41 -56
117 -77 169 -38 98 -45 112 -45 91z"/>
<path d="M3247 3983 c-14 -13 -7 -74 9 -80 12 -4 14 -14 10 -37 -3 -17 -2 -37
3 -44 5 -8 8 3 9 29 1 27 -4 49 -14 60 -10 12 -15 29 -12 49 5 32 5 33 -5 23z"/>
<path d="M2805 3830 c33 -33 62 -60 64 -60 3 0 -21 27 -54 60 -33 33 -62 60
-64 60 -3 0 21 -27 54 -60z"/>
<path d="M3200 3641 c14 -11 21 -21 16 -21 -12 0 14 -30 27 -30 6 0 2 7 -9 16
-19 15 -19 16 1 10 l20 -6 -20 16 c-32 25 -65 39 -35 15z"/>
<path d="M819 4146 c-2 -2 -5 -46 -3 -46 1 0 9 11 17 23 13 20 13 24 1 24 -8
0 -14 -1 -15 -1z"/>
<path d="M3733 3939 c-70 -34 -90 -108 -45 -169 23 -31 79 -70 101 -70 9 0 -4
10 -28 23 -105 53 -114 165 -18 211 47 22 78 20 118 -7 43 -28 50 -71 19 -110
-33 -41 -96 -33 -113 14 -8 24 21 62 44 56 11 -3 17 -1 13 4 -9 15 -33 10 -54
-11 -27 -27 -25 -46 10 -81 22 -23 35 -28 57 -25 62 11 94 94 55 142 -39 48
-93 56 -159 23z"/>
<path d="M4391 3714 c0 -11 3 -14 6 -6 3 7 2 16 -1 19 -3 4 -6 -2 -5 -13z"/>
<path d="M3600 2836 c0 -2 9 -6 20 -9 11 -3 18 -1 14 4 -5 9 -34 13 -34 5z"/>
<path d="M4735 2758 c-41 -54 -45 -61 -15 -28 44 47 85 100 77 100 -3 0 -30
-33 -62 -72z"/>
<path d="M4778 2772 c-15 -21 -38 -50 -50 -67 -15 -20 -17 -25 -5 -16 21 17
91 111 86 116 -2 2 -16 -13 -31 -33z"/>
<path d="M4770 2708 l-23 -33 28 27 c16 15 26 30 23 33 -3 4 -16 -9 -28 -27z"/>
<path d="M4450 2714 c0 -12 150 -74 177 -73 23 0 20 3 -17 13 -25 7 -71 25
-102 39 -32 15 -58 24 -58 21z"/>
<path d="M4175 2654 c-22 -13 -35 -24 -30 -24 12 0 75 38 75 45 0 6 2 7 -45
-21z"/>
<path d="M4032 2638 c-35 -17 -61 -32 -59 -35 6 -5 127 55 127 62 0 6 6 9 -68
-27z"/>
<path d="M3615 2590 c-22 -10 -33 -19 -25 -19 8 0 31 8 50 19 45 24 28 24 -25
0z"/>
<path d="M4743 2528 c-40 -34 -70 -64 -68 -67 3 -2 17 6 32 20 24 22 26 22 20
4 -4 -11 11 0 33 25 36 40 65 81 58 80 -2 -1 -35 -29 -75 -62z m27 9 c0 -2
-10 -12 -22 -23 l-23 -19 19 23 c18 21 26 27 26 19z"/>
<path d="M4669 2493 c-13 -17 -13 -17 6 -3 11 8 22 16 24 17 2 2 0 3 -6 3 -6
0 -17 -8 -24 -17z"/>
<path d="M4771 2488 c-14 -23 -14 -23 8 -4 22 20 25 26 13 26 -4 0 -13 -10
-21 -22z"/>
<path d="M4414 2464 c-18 -14 -18 -14 6 -3 31 14 36 19 24 19 -6 0 -19 -7 -30
-16z"/>
<path d="M3373 3473 c-18 -9 -33 -20 -33 -25 0 -10 56 17 65 32 8 12 7 12 -32
-7z"/>
<path d="M2808 2903 c6 -2 18 -2 25 0 6 3 1 5 -13 5 -14 0 -19 -2 -12 -5z"/>
<path d="M2806 2882 c-3 -5 8 -6 25 -4 16 2 29 6 29 8 0 8 -49 4 -54 -4z"/>
<path d="M2758 2873 c6 -2 18 -2 25 0 6 3 1 5 -13 5 -14 0 -19 -2 -12 -5z"/>
<path d="M2826 2852 c-2 -4 11 -6 30 -4 19 2 34 6 34 8 0 8 -59 4 -64 -4z"/>
<path d="M2898 2823 c7 -3 16 -2 19 1 4 3 -2 6 -13 5 -11 0 -14 -3 -6 -6z"/>
<path d="M3229 4663 c-13 -16 -12 -17 4 -4 16 13 21 21 13 21 -2 0 -10 -8 -17
-17z"/>
<path d="M3731 4574 c0 -11 3 -14 6 -6 3 7 2 16 -1 19 -3 4 -6 -2 -5 -13z"/>
<path d="M3546 4565 c-3 -9 -6 -22 -5 -28 0 -7 5 -1 10 12 5 13 8 26 5 28 -2
2 -6 -3 -10 -12z"/>
<path d="M3714 4516 c-3 -21 -4 -39 -1 -42 2 -3 8 11 11 32 4 20 5 38 2 41 -2
3 -8 -11 -12 -31z"/>
<path d="M3526 4463 c-4 -32 -9 -71 -11 -88 -5 -27 -4 -28 5 -7 11 25 26 152
18 152 -3 0 -9 -26 -12 -57z"/>
<path d="M3156 4455 c-9 -26 -7 -32 5 -12 6 10 9 21 6 23 -2 3 -7 -2 -11 -11z"/>
<path d="M3802 4445 c0 -16 2 -22 5 -12 2 9 2 23 0 30 -3 6 -5 -1 -5 -18z"/>
<path d="M3962 4435 c0 -16 2 -22 5 -12 2 9 2 23 0 30 -3 6 -5 -1 -5 -18z"/>
<path d="M3282 4420 c0 -14 2 -19 5 -12 2 6 2 18 0 25 -3 6 -5 1 -5 -13z"/>
<path d="M3701 4424 c0 -11 3 -14 6 -6 3 7 2 16 -1 19 -3 4 -6 -2 -5 -13z"/>
<path d="M3351 4413 c-1 -6 -4 -20 -7 -30 -5 -17 -5 -17 6 0 6 10 9 23 6 30
-3 9 -5 9 -5 0z"/>
<path d="M4145 4400 c3 -5 8 -10 11 -10 2 0 4 5 4 10 0 6 -5 10 -11 10 -5 0
-7 -4 -4 -10z"/>
<path d="M3597 4350 c-3 -11 -1 -20 4 -20 5 0 9 9 9 20 0 11 -2 20 -4 20 -2 0
-6 -9 -9 -20z"/>
<path d="M2957 4256 c-54 -38 -77 -59 -33 -32 16 10 44 27 63 38 18 11 33 22
33 24 0 9 -18 1 -63 -30z"/>
<path d="M943 3931 c-72 -9 -135 -20 -140 -25 -4 -5 5 -6 22 -3 17 3 80 11
140 18 61 6 117 15 125 20 20 11 18 11 -147 -10z"/>
<path d="M995 3886 c-72 -33 -269 -91 -441 -130 -159 -37 -456 -86 -517 -86
-20 0 -37 -5 -37 -10 0 -6 10 -8 23 -6 12 3 49 8 82 11 294 31 779 148 921
224 52 27 31 25 -31 -3z"/>
<path d="M1076 3810 c-22 -17 -35 -30 -30 -30 10 0 83 59 74 59 -3 0 -23 -13
-44 -29z"/>
<path d="M1140 3806 c0 -9 5 -16 10 -16 6 0 10 4 10 9 0 6 -4 13 -10 16 -5 3
-10 -1 -10 -9z"/>
<path d="M952 3748 c-95 -38 -297 -93 -457 -124 -248 -48 -281 -54 -380 -65
-55 -6 -104 -15 -110 -20 -7 -7 -4 -8 8 -3 17 6 18 5 3 -31 -22 -51 -14 -56 8
-6 17 36 22 39 68 45 28 4 53 5 55 2 10 -10 -28 -111 -88 -234 -59 -121 -59
-123 -48 -170 7 -26 16 -51 22 -57 7 -7 8 -4 4 7 -22 62 -27 99 -17 118 10 19
13 18 63 -17 28 -20 53 -38 55 -39 5 -3 -73 -123 -80 -124 -5 0 -8 9 -8 20 0
11 -4 20 -9 20 -5 0 -1 -30 10 -67 11 -38 30 -108 43 -158 14 -49 68 -245 121
-435 53 -190 112 -399 131 -465 90 -321 136 -485 229 -810 7 -27 44 -157 81
-288 37 -130 69 -235 71 -233 5 4 -5 43 -83 318 -24 86 -44 161 -44 167 0 7
16 8 44 5 36 -5 49 -2 74 16 36 26 96 120 122 188 10 26 31 84 48 129 39 104
55 256 56 529 l0 200 35 2 c82 4 141 -9 175 -39 22 -18 45 -29 64 -29 30 0 31
0 26 46 -4 51 -20 78 -38 67 -6 -3 -8 -2 -3 2 4 5 -12 29 -36 54 -69 73 -108
142 -110 197 -1 43 -4 48 -34 60 -18 8 -43 14 -56 14 -13 0 -49 9 -80 19 -53
18 -56 19 -71 2 -22 -24 -21 -31 18 -108 23 -44 37 -88 40 -125 l6 -57 -109 2
c-106 2 -108 3 -145 35 -20 17 -46 32 -57 32 -12 0 -33 8 -47 18 -37 26 -91
49 -132 57 l-35 7 27 -28 c38 -41 64 -106 77 -194 7 -41 13 -75 14 -75 13 -9
91 -35 102 -35 8 0 15 7 15 15 0 9 10 19 23 24 28 10 136 29 205 36 l53 4 -7
-47 c-17 -119 -112 -383 -176 -490 -37 -61 -70 -82 -125 -82 -65 0 -68 6 -53
102 22 146 33 165 125 218 74 43 82 50 112 110 35 71 38 80 23 80 -5 0 -10 -6
-10 -13 0 -15 -85 -100 -117 -116 -34 -17 -49 -14 -30 7 28 30 20 30 -39 0
-31 -15 -64 -28 -73 -28 -9 0 -29 -9 -45 -19 -17 -11 -33 -18 -37 -15 -4 2
-10 0 -14 -6 -12 -20 -22 -9 -38 48 -17 58 -168 598 -185 663 l-10 36 212 6
c217 7 228 8 381 33 234 38 495 130 603 211 36 27 41 26 46 -4 2 -11 39 -141
81 -289 42 -148 103 -363 136 -478 32 -115 58 -210 57 -212 -2 -1 -31 11 -66
28 -61 30 -65 30 -96 16 -55 -27 -145 -117 -182 -184 -26 -47 -37 -79 -40
-126 -3 -35 -10 -79 -15 -98 -17 -67 -8 -75 17 -15 31 72 105 179 140 202 22
14 27 14 35 2 14 -20 5 -169 -12 -203 -33 -66 -162 -119 -252 -102 -42 8 -47
23 -31 86 11 43 36 152 49 213 4 21 13 29 35 34 39 7 38 16 -4 36 -19 9 -66
46 -105 83 -53 49 -81 86 -108 140 -20 41 -37 73 -38 72 -1 -2 3 -39 9 -83 11
-78 13 -83 74 -155 34 -41 65 -85 69 -98 7 -31 -25 -106 -92 -212 -58 -92 -64
-113 -40 -144 8 -11 15 -41 15 -66 0 -55 30 -147 61 -192 22 -30 22 -30 98
-26 136 9 259 67 412 194 94 78 147 136 155 169 4 15 4 46 1 71 -9 85 -1 61
84 -246 26 -96 71 -256 98 -355 l50 -180 -27 -22 c-59 -49 -202 -126 -312
-169 -50 -19 -268 -81 -310 -88 -19 -3 -89 -15 -155 -26 -121 -21 -315 -38
-315 -27 0 15 82 67 119 76 l43 9 -24 -26 -23 -26 35 25 c39 29 164 64 256 73
97 9 164 39 238 107 129 120 146 232 42 286 -45 23 -194 12 -341 -26 -173 -46
-335 -54 -335 -18 0 7 13 27 29 44 25 28 33 31 59 24 36 -11 42 -7 68 50 17
34 19 50 11 64 -11 20 -35 139 -39 192 -1 18 -6 33 -11 33 -4 0 -6 4 -2 9 3 5
1 12 -4 15 -15 9 -54 -95 -61 -164 -9 -80 -33 -137 -64 -151 -13 -6 -31 -29
-39 -50 -13 -32 -20 -39 -44 -39 l-28 0 23 -18 22 -17 -20 -90 c-12 -54 -19
-125 -19 -175 l1 -85 14 78 c8 43 25 103 39 133 14 30 25 58 25 62 0 4 4 13 9
20 7 11 18 9 58 -12 28 -14 72 -30 99 -37 27 -6 58 -20 69 -29 29 -26 101 -60
125 -60 27 0 25 -22 -7 -60 -17 -20 -32 -30 -44 -27 -10 3 -20 0 -23 -7 -3 -7
-5 -7 -5 2 -3 50 -176 -62 -240 -155 -20 -29 -28 -33 -66 -33 -39 0 -45 3 -51
25 -4 14 -8 24 -10 22 -4 -4 40 -183 76 -311 11 -39 25 -88 31 -108 5 -21 14
-38 19 -38 6 0 6 10 0 25 -12 31 -4 31 53 -1 l46 -25 22 43 c12 24 23 44 24
46 2 2 30 -10 64 -27 48 -25 59 -35 54 -48 -13 -36 7 -5 42 65 19 39 38 72 41
72 5 0 105 -41 112 -46 2 -1 -8 -25 -22 -53 -15 -28 -23 -51 -18 -51 5 0 32
49 62 110 33 69 58 110 68 110 8 0 36 -12 61 -27 25 -14 40 -20 34 -11 -7 8
-32 23 -55 33 -24 11 -44 20 -46 21 -2 1 5 19 16 41 11 21 34 78 51 127 17 49
32 90 34 92 2 2 40 17 85 33 78 28 82 29 82 11 0 -43 -127 -396 -182 -507 -6
-13 -9 -25 -6 -28 3 -3 11 7 17 23 l12 29 57 -20 c31 -10 60 -24 64 -30 4 -7
18 13 33 46 15 31 29 57 31 57 3 0 28 -10 55 -21 27 -12 52 -19 55 -17 2 3
-20 15 -51 28 -30 12 -55 23 -55 24 0 1 17 44 38 96 21 52 41 103 45 112 6 17
9 16 53 -2 26 -11 49 -18 51 -16 5 5 -63 36 -78 36 -15 0 -11 19 26 130 19 58
39 124 45 147 7 29 22 51 49 72 47 37 51 38 51 6 0 -14 4 -33 10 -43 10 -17
70 -225 70 -242 0 -5 -21 0 -46 11 -25 12 -48 19 -50 16 -2 -2 16 -12 41 -21
25 -10 45 -24 45 -32 0 -25 -52 -229 -60 -238 -5 -5 -29 -1 -56 8 -56 19 -57
19 -49 6 3 -5 12 -10 19 -10 8 0 30 -7 49 -15 l36 -15 -20 -56 c-22 -66 -24
-86 -5 -62 13 18 20 17 91 -7 11 -3 4 3 -15 13 -19 11 -38 18 -43 15 -19 -11
-16 32 7 113 13 49 32 127 42 172 17 81 18 83 30 55 7 -15 13 -24 13 -19 1 11
-26 121 -45 176 -8 25 -48 167 -89 315 -42 149 -84 299 -95 335 -10 36 -36
130 -59 210 -116 421 -163 589 -175 630 -8 25 -32 110 -55 190 -42 150 -153
541 -176 620 -7 25 -51 182 -98 350 -134 475 -170 600 -175 596 -2 -3 8 -45
22 -95 l26 -91 -51 -128 c-73 -179 -221 -465 -279 -539 -16 -21 -17 -21 -57
-3 -22 10 -43 22 -47 28 -3 5 37 85 89 178 52 93 96 172 98 177 1 4 24 -4 50
-18 26 -15 47 -23 47 -18 0 4 -18 17 -41 27 -22 11 -42 23 -44 27 -3 4 16 48
40 98 47 97 125 315 124 347 0 16 -2 16 -9 -4 l-9 -22 -49 18 -48 19 -72 -29z
m123 -2 c31 -11 39 -19 38 -36 -6 -46 -80 -225 -164 -398 -102 -206 -89 -197
-186 -139 -38 22 -49 34 -44 46 3 9 37 76 75 150 65 129 146 321 146 348 0 15
47 42 75 42 11 1 38 -6 60 -13z m-175 -112 c-68 -175 -103 -246 -119 -241 -9
3 -25 8 -36 11 -11 4 -6 -1 12 -11 l32 -18 -33 -60 c-124 -225 -147 -265 -154
-265 -3 0 -29 14 -58 31 l-52 32 37 61 c21 34 61 105 90 159 51 94 63 108 76
87 3 -5 12 -10 18 -10 7 0 2 8 -10 18 l-22 17 33 71 c66 138 46 116 -28 -31
-75 -150 -144 -272 -238 -417 -56 -86 -52 -85 -128 -29 -28 20 -31 21 -17 5
10 -12 33 -30 52 -40 20 -10 33 -24 31 -31 -5 -12 -116 -177 -160 -235 -11
-16 -25 -28 -31 -28 -16 0 -62 51 -74 81 -7 19 -6 30 3 40 21 23 138 215 225
371 l83 147 60 -30 c33 -17 62 -28 64 -26 3 2 -23 17 -56 33 -33 15 -60 33
-60 38 0 6 15 44 34 86 19 41 42 96 52 123 19 54 26 56 104 27 30 -11 64 -20
75 -19 11 0 -11 10 -50 23 l-70 23 40 11 c22 6 68 18 102 26 34 7 66 16 71 19
5 4 30 0 56 -8 26 -8 44 -11 42 -6 -3 5 -20 12 -38 15 l-33 7 50 17 c28 9 51
14 53 11 2 -4 -11 -42 -28 -85z m-395 -84 c-9 -27 -21 -50 -26 -50 -5 0 -32
12 -60 26 -28 14 -53 23 -56 20 -3 -2 22 -17 56 -33 l61 -29 -60 -119 c-70
-141 -111 -217 -187 -340 -31 -49 -67 -109 -80 -132 -14 -24 -29 -45 -33 -48
-9 -6 -64 154 -56 163 3 2 22 -10 43 -27 21 -17 42 -31 47 -31 5 0 -12 16 -38
36 -28 21 -44 40 -40 47 4 7 17 26 29 42 76 106 243 456 232 488 -2 7 -12 -14
-22 -46 -10 -32 -22 -60 -27 -63 -5 -3 -20 1 -33 10 -13 9 -28 16 -32 16 -4 0
7 -10 25 -21 39 -26 39 -27 -30 -159 -68 -131 -72 -136 -100 -121 -13 7 -36
23 -52 35 l-28 23 40 84 c22 46 51 116 63 154 12 39 24 72 25 73 1 2 65 15
141 28 76 13 154 28 173 32 19 5 36 5 38 0 2 -4 -4 -30 -13 -58z m735 -73 c18
-69 19 -107 1 -107 -6 0 -81 49 -81 53 0 1 9 27 20 57 12 30 23 61 26 69 7 22
13 10 34 -72z m-3 -123 c6 -16 -60 -189 -120 -314 -39 -82 -174 -319 -193
-339 -5 -5 -123 40 -130 50 -3 5 17 41 44 81 27 40 68 106 91 145 l42 73 54
-31 c30 -17 55 -29 55 -26 0 3 -22 18 -50 33 -27 15 -50 30 -50 34 0 4 21 45
47 91 43 79 93 183 114 237 l9 23 41 -23 c23 -13 43 -28 46 -34z m62 -88 c18
-60 30 -111 27 -113 -4 -4 -93 41 -108 56 -4 4 4 43 19 88 15 45 28 81 29 80
1 -1 16 -51 33 -111z m-34 -97 c47 -26 55 -35 49 -53 -16 -55 -69 -179 -108
-256 l-43 -85 -102 -34 c-56 -19 -104 -32 -107 -29 -2 3 14 36 37 73 71 117
166 300 199 383 7 17 14 32 16 32 3 0 29 -14 59 -31z m-515 1 c16 -11 45 -27
64 -35 l36 -15 -43 -73 c-61 -103 -143 -230 -204 -317 -29 -41 -54 -78 -55
-82 -4 -10 -198 -21 -198 -11 0 4 37 60 83 124 78 110 84 116 103 102 33 -25
94 -54 94 -45 0 5 -17 17 -37 26 -79 36 -79 36 -30 112 24 38 65 106 91 152
26 45 52 82 58 82 5 0 23 -9 38 -20z m609 -118 c21 -77 21 -79 2 -131 -22 -65
-22 -64 -109 -106 l-72 -34 24 47 c39 78 82 173 107 240 13 34 25 62 25 62 1
0 11 -35 23 -78z m-814 17 l54 -31 -41 -66 c-23 -37 -66 -102 -96 -144 l-53
-78 -37 19 c-83 43 -85 31 19 189 51 78 94 142 96 142 2 0 28 -14 58 -31z
m854 -159 c1 -3 -8 -11 -18 -17 -18 -11 -19 -10 -10 20 5 17 9 34 10 37 0 5
17 -31 18 -40z m-588 4 l51 -25 -18 -27 c-48 -76 -131 -186 -149 -197 -25 -16
-139 -29 -130 -16 3 6 13 7 23 4 13 -5 14 -3 6 7 -9 9 8 43 75 146 47 73 87
133 89 134 1 0 25 -12 53 -26z m-419 -188 c-4 -7 -20 -31 -37 -54 l-30 -42
-68 1 c-37 1 -74 7 -82 13 -7 6 -20 30 -28 53 l-15 43 29 -21 c32 -23 35 -29
17 -47 -6 -6 -9 -14 -6 -17 3 -4 31 30 62 74 l56 79 55 -35 c35 -23 52 -40 47
-47z m453 -10 l49 -22 -54 -11 c-30 -7 -70 -15 -89 -19 l-34 -6 29 41 c16 22
34 40 39 40 6 0 32 -10 60 -23z m233 -353 c12 -9 22 -21 22 -28 0 -7 6 -18 14
-24 13 -11 16 -74 4 -86 -2 -3 -36 2 -74 10 -38 8 -73 15 -78 15 -8 0 0 147
10 182 4 15 11 12 42 -18 20 -20 47 -43 60 -51z m225 -980 c-7 -2 -19 -2 -25
0 -7 3 -2 5 12 5 14 0 19 -2 13 -5z m-651 -247 c7 4 8 3 4 -4 -10 -17 -31 -15
-47 5 -13 15 -12 15 9 4 12 -6 28 -9 34 -5z m376 -31 c-3 -3 -9 2 -12 12 -6
14 -5 15 5 6 7 -7 10 -15 7 -18z m877 -477 c-18 -90 -129 -398 -144 -398 -3 0
-28 7 -55 15 -27 8 -51 13 -54 11 -2 -3 21 -12 52 -22 48 -15 55 -21 50 -37
-12 -38 -76 -167 -83 -167 -13 0 -111 31 -111 35 0 2 22 59 49 127 55 139 98
269 107 329 6 38 10 41 88 80 44 22 85 45 91 50 15 15 17 11 10 -23z m-390
-165 c-19 -77 -140 -343 -156 -343 -24 0 -110 44 -105 54 2 6 21 50 41 98 l37
86 56 -19 c63 -22 62 -22 62 -11 0 4 -23 13 -52 20 -28 6 -53 14 -56 17 -3 2
3 24 12 48 16 43 18 44 84 59 37 9 71 16 76 17 4 0 5 -11 1 -26z m-171 -40
c-11 -42 -55 -144 -116 -270 l-54 -112 -62 29 -62 29 26 58 c41 91 95 234 92
242 -2 4 -16 4 -33 0 -23 -5 -25 -7 -7 -8 12 0 22 -5 22 -9 0 -12 -34 -110
-50 -144 -12 -25 -13 -26 -47 -11 -19 8 -37 12 -40 10 -2 -3 12 -11 31 -18 20
-7 36 -17 36 -21 0 -4 -19 -46 -42 -93 -46 -92 -51 -95 -109 -54 l-27 19 37
89 c26 65 40 87 51 84 12 -4 12 -3 2 4 -11 8 -11 22 -1 77 14 75 25 86 86 86
21 0 85 8 143 19 141 25 132 26 124 -6z m-484 -38 c0 -22 -13 -55 -20 -55 -16
0 -40 31 -40 51 0 15 6 19 30 17 17 -1 30 -7 30 -13z m45 5 c17 -7 24 -7 20 0
-4 6 10 10 33 10 l40 0 -18 -77 c-21 -89 -41 -143 -53 -143 -17 0 -85 40 -89
52 -3 7 4 40 14 73 10 33 18 68 18 78 0 20 1 20 35 7z m-65 -91 c0 -11 -4 -17
-10 -14 -5 3 -10 13 -10 21 0 8 5 14 10 14 6 0 10 -9 10 -21z m57 -117 l32
-17 -21 -45 -20 -45 -13 35 c-19 55 -26 90 -18 90 5 -1 22 -9 40 -18z"/>
<path d="M902 3519 c24 -14 113 -40 102 -30 -9 8 -102 41 -113 41 -3 0 2 -5
11 -11z"/>
<path d="M164 3511 c7 -11 46 -35 46 -28 0 3 -12 12 -26 22 -15 9 -23 12 -20
6z"/>
<path d="M230 3276 c0 -2 19 -15 43 -30 l42 -27 -35 30 c-32 27 -50 38 -50 27z"/>
<path d="M1035 2823 c13 -14 117 -44 109 -32 -2 5 -23 13 -45 19 -22 6 -48 14
-57 17 -12 4 -14 3 -7 -4z"/>
<path d="M1265 2911 c6 -5 24 -13 40 -17 39 -9 30 0 -15 15 -19 6 -30 7 -25 2z"/>
<path d="M1735 510 c3 -5 14 -10 23 -10 15 0 15 2 2 10 -20 13 -33 13 -25 0z"/>
<path d="M1790 490 c8 -5 22 -9 30 -9 10 0 8 3 -5 9 -27 12 -43 12 -25 0z"/>
<path d="M1190 296 c19 -7 46 -16 60 -20 l25 -7 -25 14 c-14 8 -41 17 -60 21
l-35 6 35 -14z"/>
<path d="M940 376 c0 -2 9 -6 20 -9 11 -3 18 -1 14 4 -5 9 -34 13 -34 5z"/>
<path d="M1135 3615 c30 -25 59 -39 51 -26 -4 6 -22 18 -39 27 -30 14 -31 14
-12 -1z"/>
<path d="M15 3419 c3 -8 20 -23 38 -33 18 -11 28 -15 22 -10 -50 46 -65 57
-60 43z"/>
<path d="M1797 2503 c19 -80 31 -116 32 -100 1 21 -28 127 -35 127 -2 0 -1
-12 3 -27z"/>
<path d="M2801 2499 c-6 -18 -11 -37 -10 -43 0 -6 7 7 15 28 8 22 12 41 10 43
-2 2 -9 -10 -15 -28z"/>
<path d="M2742 2413 c-13 -49 -28 -98 -33 -111 -9 -24 -4 -236 10 -365 8 -71
7 -82 -15 -128 -14 -28 -29 -72 -34 -97 -12 -66 -12 -194 0 -187 6 3 10 -1 10
-10 0 -9 -4 -13 -10 -10 -5 3 -10 1 -10 -4 0 -17 20 -13 27 5 3 9 1 25 -5 35
-15 23 -15 32 -2 24 6 -3 10 1 10 10 0 9 -4 14 -9 11 -5 -3 -8 5 -8 19 0 14 3
22 8 19 5 -3 9 4 9 15 0 12 -4 21 -8 21 -12 0 2 77 23 128 18 43 29 52 39 30
4 -7 4 -2 1 12 -3 14 -8 84 -12 157 -6 140 3 225 39 366 11 43 18 81 15 83 -4
4 -26 -75 -51 -181 -9 -38 -16 -54 -20 -44 -9 21 -2 69 24 159 24 83 34 130
28 130 -2 0 -14 -39 -26 -87z"/>
<path d="M1692 2470 c0 -14 2 -19 5 -12 2 6 2 18 0 25 -3 6 -5 1 -5 -13z"/>
<path d="M3968 2351 c-36 -3 -70 -10 -75 -14 -4 -5 8 -6 27 -3 19 3 87 7 152
9 64 1 114 5 111 10 -5 8 -112 7 -215 -2z"/>
<path d="M4195 2335 c-15 -21 -323 -34 -336 -14 -7 11 -9 11 -9 -3 0 -19 13
-21 110 -19 147 3 249 14 254 27 7 19 -8 26 -19 9z"/>
<path d="M3658 2195 c11 -166 7 -498 -6 -503 -7 -2 -10 -8 -6 -13 3 -5 -5 -10
-18 -10 -17 -1 -18 -3 -5 -6 9 -2 17 -9 17 -14 0 -6 -15 -2 -32 7 -60 31 -68
34 -87 34 -11 0 -23 5 -26 10 -4 6 14 11 47 11 l53 2 -60 7 c-38 4 -63 2 -67
-4 -7 -11 9 -20 79 -46 18 -7 42 -21 54 -31 12 -10 26 -16 31 -13 5 3 20 -1
33 -10 13 -9 29 -16 35 -16 7 0 44 -14 83 -31 201 -87 258 -109 280 -108 12 0
-1 8 -30 17 -63 21 -78 34 -32 27 19 -2 14 0 -11 6 -25 6 -63 15 -85 21 l-40
12 30 7 c29 6 28 7 -10 9 -55 2 -64 5 -117 29 -26 11 -53 21 -60 21 -9 0 -9 3
2 10 12 8 11 10 -7 11 -40 3 -43 4 -40 14 1 6 6 9 11 7 5 -2 4 4 -4 12 -7 9
-9 16 -4 16 5 0 10 33 12 73 1 39 4 108 6 152 3 91 -9 278 -23 345 -7 33 -8
18 -3 -55z"/>
<path d="M3426 2000 c4 -19 15 -50 25 -68 13 -22 19 -53 19 -92 0 -53 -4 -65
-36 -107 -55 -75 -64 -84 -72 -79 -4 2 -9 -5 -9 -17 -3 -36 114 94 127 142 13
48 3 115 -22 156 -10 17 -18 39 -18 50 0 11 -5 27 -10 35 -7 11 -8 5 -4 -20z"/>
<path d="M3380 1960 c5 -18 12 -35 16 -39 10 -9 -6 53 -17 63 -5 6 -5 -4 1
-24z"/>
<path d="M3334 1965 c4 -11 10 -42 13 -68 3 -26 10 -44 14 -40 9 9 -14 110
-27 122 -4 3 -4 -3 0 -14z"/>
<path d="M3250 1896 c-6 -31 -10 -64 -8 -74 2 -9 10 14 17 52 15 82 8 101 -9
22z"/>
<path d="M965 1899 c-4 -11 -1 -73 6 -137 12 -117 12 -117 -18 -239 -26 -102
-43 -142 -104 -253 -40 -72 -83 -143 -96 -156 -27 -29 -29 -36 -8 -28 8 3 29
29 46 57 75 119 167 256 208 309 37 49 43 62 37 90 -8 44 8 105 33 132 28 30
26 46 -10 92 -39 49 -69 107 -69 134 0 26 -17 26 -25 -1z"/>
<path d="M3273 1840 c0 -25 2 -35 4 -22 2 12 2 32 0 45 -2 12 -4 2 -4 -23z"/>
<path d="M2715 1767 c-7 -18 -16 -46 -19 -63 -7 -31 -3 -25 25 49 21 53 16 65
-6 14z"/>
<path d="M4230 1740 c-20 -6 -21 -8 -5 -8 11 0 29 3 40 8 25 11 -1 11 -35 0z"/>
<path d="M4615 1705 c7 -31 12 -41 19 -34 2 2 -3 18 -11 34 l-14 30 6 -30z"/>
<path d="M3010 1690 c-51 -6 -48 -7 30 -7 47 0 99 3 115 7 39 10 -65 10 -145
0z"/>
<path d="M3588 1683 c6 -2 18 -2 25 0 6 3 1 5 -13 5 -14 0 -19 -2 -12 -5z"/>
<path d="M3695 1659 c4 -5 22 -9 42 -9 45 0 40 5 -10 13 -22 3 -35 2 -32 -4z"/>
<path d="M3743 1623 c9 -2 23 -2 30 0 6 3 -1 5 -18 5 -16 0 -22 -2 -12 -5z"/>
<path d="M3636 1595 c-3 -9 -6 -22 -5 -28 0 -7 5 -1 10 12 5 13 8 26 5 28 -2
2 -6 -3 -10 -12z"/>
<path d="M3788 1593 c6 -2 18 -2 25 0 6 3 1 5 -13 5 -14 0 -19 -2 -12 -5z"/>
<path d="M3182 1491 c-86 -39 -139 -75 -67 -45 58 24 155 74 155 79 0 7 5 9
-88 -34z"/>
<path d="M3368 1512 c-50 -18 -80 -40 -38 -27 35 10 107 43 95 43 -5 0 -31 -7
-57 -16z"/>
<path d="M4661 1504 c0 -11 3 -14 6 -6 3 7 2 16 -1 19 -3 4 -6 -2 -5 -13z"/>
<path d="M4798 1493 c7 -3 16 -2 19 1 4 3 -2 6 -13 5 -11 0 -14 -3 -6 -6z"/>
<path d="M2663 1345 c0 -106 -6 -177 -27 -294 -15 -84 -25 -169 -22 -190 19
-133 17 -211 -9 -311 l-25 -100 22 -52 c18 -42 19 -53 8 -56 -8 -3 -24 -15
-37 -28 -27 -27 -29 -68 -8 -164 8 -36 14 -84 15 -108 0 -31 4 -42 13 -39 6 2
11 9 10 16 -2 6 -6 50 -10 98 -3 50 -9 79 -13 68 -5 -15 -8 -13 -13 14 -13 63
-8 89 19 110 24 19 28 20 38 5 10 -13 7 -22 -16 -46 -15 -17 -28 -38 -28 -47
0 -10 8 -4 19 16 28 46 51 48 118 15 68 -34 162 -66 170 -59 3 4 -8 9 -23 13
-16 4 -53 17 -83 30 l-55 22 32 16 c18 9 32 19 32 21 0 6 -52 -14 -65 -25 -8
-6 -23 1 -45 19 -30 25 -33 31 -21 45 13 15 51 23 51 10 0 -4 -8 -13 -17 -21
-13 -10 -8 -9 15 2 19 9 36 14 40 11 3 -3 1 -6 -4 -6 -5 0 -20 -10 -34 -21
l-25 -21 35 19 c19 11 34 23 33 28 -3 17 -66 28 -86 15 -11 -6 -22 -9 -25 -5
-11 11 -29 190 -22 215 6 21 9 22 15 8 6 -15 9 -15 21 -3 16 16 19 29 4 20 -6
-3 -12 0 -14 7 -9 27 -13 228 -6 267 5 27 4 41 -4 43 -9 2 -7 30 5 103 10 55
16 75 13 45 -3 -30 -7 -75 -9 -100 -5 -45 -5 -45 6 -10 6 19 11 80 12 135 1
59 4 86 7 65 6 -32 7 -29 15 30 5 36 9 72 8 80 -1 8 -3 65 -4 125 -1 61 -5
101 -9 90 l-7 -20 -5 20 c-2 11 -4 -43 -5 -120z m14 -162 c-3 -10 -5 -4 -5 12
0 17 2 24 5 18 2 -7 2 -21 0 -30z m-67 -720 c0 -27 -4 -43 -8 -36 -8 12 -4 83
4 83 2 0 4 -21 4 -47z"/>
<path d="M3260 1473 c-73 -24 -170 -67 -170 -75 0 -7 4 -7 13 0 6 5 55 26 107
45 52 20 88 36 80 36 -8 0 -22 -3 -30 -6z"/>
<path d="M3326 1435 c-68 -24 -105 -44 -56 -30 45 13 140 48 140 51 0 7 -15 3
-84 -21z"/>
<path d="M3061 1425 c1 -19 18 -51 18 -35 0 8 -4 22 -9 30 -5 8 -9 11 -9 5z"/>
<path d="M3180 1385 c-79 -29 -93 -36 -88 -40 2 -2 38 9 79 25 40 16 67 29 59
29 -8 0 -31 -6 -50 -14z"/>
<path d="M3217 1353 c-37 -14 -66 -28 -64 -29 4 -4 149 45 156 52 11 10 -30 0
-92 -23z"/>
<path d="M3304 1334 c-18 -14 -18 -15 4 -4 12 6 22 13 22 15 0 8 -5 6 -26 -11z"/>
<path d="M3205 1299 c-22 -10 -29 -16 -15 -13 28 7 80 33 65 33 -5 0 -28 -9
-50 -20z"/>
<path d="M3255 1270 c-22 -11 -53 -24 -69 -30 -16 -5 -27 -12 -24 -15 6 -6
138 51 138 60 0 6 3 7 -45 -15z"/>
<path d="M3140 1270 c-9 -6 -10 -10 -3 -10 6 0 15 5 18 10 8 12 4 12 -15 0z"/>
<path d="M4330 1200 c-9 -6 -10 -10 -3 -10 6 0 15 5 18 10 8 12 4 12 -15 0z"/>
<path d="M4040 1170 c-18 -12 -2 -12 25 0 13 6 15 9 5 9 -8 0 -22 -4 -30 -9z"/>
<path d="M3771 1102 c-1 -36 26 -166 41 -195 7 -13 6 -40 -2 -80 -9 -46 -10
-76 -2 -117 l11 -55 -5 57 c-7 74 15 171 36 162 51 -21 128 -36 218 -41 62 -4
98 -9 90 -14 -7 -5 -27 -9 -45 -9 -17 0 -35 -5 -39 -11 -4 -7 0 -9 12 -6 11 3
39 8 64 12 115 16 252 46 284 62 35 16 37 16 51 -3 32 -42 28 -148 -11 -319
-17 -75 -17 -99 0 -60 l13 30 6 -35 c19 -120 28 -223 20 -231 -5 -5 -17 -10
-28 -12 -11 -2 -30 -8 -42 -15 -33 -18 -38 -15 -17 10 10 13 2 8 -19 -10 -21
-17 -47 -32 -59 -32 -21 0 -21 0 -2 22 15 17 12 16 -17 -5 -20 -15 -47 -27
-60 -27 -26 0 -32 -6 79 88 l27 24 -35 -23 c-19 -13 -55 -40 -79 -61 -26 -23
-54 -38 -70 -38 -25 0 -24 1 14 32 75 62 90 80 27 32 -35 -26 -65 -52 -68 -56
-3 -4 -17 -8 -31 -8 -25 0 -24 1 13 31 22 17 41 33 44 36 11 13 -28 -13 -67
-45 -42 -34 -43 -34 -114 -27 -65 7 -75 11 -104 42 -17 19 -39 47 -47 61 -14
25 -14 31 12 84 l27 58 7 -40 c3 -22 10 -40 15 -40 10 0 -17 106 -48 185 -11
28 -27 70 -36 95 -14 40 -15 41 -10 10 3 -19 16 -62 30 -95 32 -79 32 -125 -2
-186 l-27 -48 22 -30 22 -31 -26 -40 -26 -39 28 -78 c16 -43 30 -71 32 -62 2
9 -8 41 -21 71 -22 49 -23 58 -12 85 19 45 34 50 60 18 21 -28 24 -28 126 -29
103 -1 257 9 308 20 14 3 59 17 100 31 l74 26 18 -24 c47 -60 41 -95 -30 -173
-35 -39 -35 -39 -5 -15 18 13 40 37 50 53 16 27 18 28 25 10 5 -14 -2 -27 -29
-51 -20 -18 -32 -33 -27 -33 5 0 22 12 37 27 l28 27 0 -28 c0 -15 4 -25 9 -22
15 9 33 98 32 160 0 50 -4 63 -27 87 -15 16 -35 31 -43 34 -18 6 -41 89 -41
150 0 21 -5 53 -11 70 -9 24 -8 52 5 127 20 117 20 181 2 216 -8 15 -17 50
-21 77 -4 28 -13 70 -20 95 -15 52 -15 54 -15 78 0 13 -2 14 -9 4 -4 -7 -52
-22 -107 -34 -79 -17 -137 -21 -289 -22 -217 -1 -260 8 -268 61 -4 27 -4 26
-6 -5z m672 -44 c4 -12 5 -23 4 -25 -9 -8 -220 -17 -317 -13 l-115 5 120 8
c99 6 156 15 296 46 4 0 9 -9 12 -21z m-603 -14 c159 -36 379 -50 519 -34 52
6 95 9 97 8 1 -2 4 -17 6 -33 3 -29 1 -30 -57 -43 -100 -22 -366 -24 -460 -3
-44 9 -91 23 -103 30 -13 7 -26 10 -29 7 -3 -3 10 -12 28 -20 23 -11 26 -14 9
-10 -40 10 -44 15 -56 83 -6 31 -5 33 12 26 11 -4 26 -9 34 -11z m45 -119
c114 -24 397 -19 548 10 35 7 37 6 37 -18 0 -16 -7 -28 -17 -31 -130 -39 -175
-46 -283 -46 -186 0 -335 33 -351 78 -5 12 -7 22 -6 22 1 0 34 -7 72 -15z
m712 -694 c7 -9 12 -23 12 -31 0 -10 -3 -9 -10 5 -6 11 -25 33 -42 49 l-32 29
30 -18 c17 -10 35 -26 42 -34z m-22 -15 c24 -37 34 -81 27 -128 l-6 -43 -13
63 c-7 35 -22 76 -33 92 -24 34 -25 40 -5 40 8 0 22 -11 30 -24z"/>
<path d="M3087 945 c-67 -39 -140 -115 -111 -115 8 0 35 28 34 35 0 3 26 26
60 51 33 24 60 46 60 49 0 6 2 7 -43 -20z"/>
<path d="M3135 924 c-18 -16 -22 -22 -9 -15 18 9 53 42 43 41 -2 -1 -17 -12
-34 -26z"/>
<path d="M3153 895 c-47 -32 -72 -55 -59 -55 6 0 116 82 116 86 0 7 -5 4 -57
-31z"/>
<path d="M3065 875 c-16 -13 -25 -24 -19 -25 6 0 21 11 34 25 30 32 24 32 -15
0z"/>
<path d="M3184 865 c-15 -14 -25 -27 -22 -30 2 -3 17 9 33 25 35 36 27 40 -11
5z"/>
<path d="M2010 623 c0 -54 -60 -285 -120 -463 -29 -84 -49 -154 -46 -157 7 -7
14 12 67 173 73 224 131 484 108 484 -5 0 -9 -17 -9 -37z"/>
<path d="M3945 629 c11 -7 35 -18 54 -25 l35 -12 -67 -48 c-36 -26 -65 -50
-63 -52 5 -5 89 53 110 77 20 22 46 28 46 11 0 -5 5 -10 12 -10 8 0 8 4 -2 14
-13 12 -37 22 -125 51 l-20 7 20 -13z"/>
<path d="M730 585 c0 -8 4 -15 10 -15 5 0 7 7 4 15 -4 8 -8 15 -10 15 -2 0 -4
-7 -4 -15z"/>
<path d="M3938 572 c-21 -15 -38 -31 -38 -35 0 -7 51 26 85 55 24 20 -14 5
-47 -20z"/>
<path d="M2710 565 c-45 -33 -30 -32 18 0 20 14 32 25 27 25 -6 -1 -26 -12
-45 -25z"/>
<path d="M3970 500 c-30 -22 -51 -40 -47 -40 5 0 34 18 64 40 31 22 52 40 47
40 -5 0 -34 -18 -64 -40z"/>
<path d="M751 514 c0 -11 3 -14 6 -6 3 7 2 16 -1 19 -3 4 -6 -2 -5 -13z"/>
<path d="M770 520 c0 -5 5 -10 10 -10 6 0 10 5 10 10 0 6 -4 10 -10 10 -5 0
-10 -4 -10 -10z"/>
<path d="M760 480 c0 -5 5 -10 10 -10 6 0 10 5 10 10 0 6 -4 10 -10 10 -5 0
-10 -4 -10 -10z"/>
<path d="M3984 468 c-43 -32 -49 -38 -38 -38 10 1 82 60 72 60 -3 0 -18 -10
-34 -22z"/>
<path d="M4452 425 c0 -16 2 -22 5 -12 2 9 2 23 0 30 -3 6 -5 -1 -5 -18z"/>
<path d="M1584 409 c33 -11 61 -17 63 -15 6 5 -87 36 -106 35 -9 -1 11 -10 43
-20z"/>
<path d="M2135 315 c2 -16 8 -41 11 -54 6 -22 5 -22 -15 -11 -13 6 -25 9 -28
7 -3 -3 9 -12 25 -21 42 -22 55 -64 42 -140 -6 -34 -13 -69 -16 -78 -3 -10 -1
-18 5 -18 5 0 13 27 17 60 7 61 11 70 17 34 1 -10 5 -23 8 -29 4 -5 9 -23 13
-39 4 -15 9 -26 13 -23 3 3 -9 54 -26 114 -17 59 -36 126 -42 148 -6 22 -15
49 -20 60 -8 16 -8 14 -4 -10z"/>
<path d="M2794 264 c-18 -14 -18 -15 4 -4 12 6 22 13 22 15 0 8 -5 6 -26 -11z"/>
<path d="M4209 253 c-13 -16 -12 -17 4 -4 9 7 17 15 17 17 0 8 -8 3 -21 -13z"/>
<path d="M4380 250 c-8 -5 -12 -12 -9 -15 4 -3 12 1 19 10 14 17 11 19 -10 5z"/>
<path d="M2980 190 l-65 -7 68 -1 c39 -1 67 2 67 8 0 6 -1 9 -2 8 -2 -1 -32
-4 -68 -8z"/>
<path d="M4505 95 c-14 -20 -44 -48 -66 -62 -22 -14 -37 -28 -35 -30 7 -8 82
47 102 75 45 60 44 75 -1 17z"/>
<path d="M3224 19 c-19 -22 -19 -22 4 -8 12 8 22 17 22 21 0 12 -6 9 -26 -13z"/>
<path d="M2980 10 c-9 -6 -10 -10 -3 -10 6 0 15 5 18 10 8 12 4 12 -15 0z"/>
<path d="M3145 10 c-3 -5 -2 -10 4 -10 5 0 13 5 16 10 3 6 2 10 -4 10 -5 0
-13 -4 -16 -10z"/>
</g>
</svg>
